<?xml version="1.0" encoding="utf-8"?>
<!-- Generator: Adobe Illustrator 25.2.1, SVG Export Plug-In . SVG Version: 6.00 Build 0)  -->
<svg version="1.1" id="Layer_1" xmlns="http://www.w3.org/2000/svg" xmlns:xlink="http://www.w3.org/1999/xlink" x="0px" y="0px"
	 viewBox="0 0 600 420" style="enable-background:new 0 0 600 420;" xml:space="preserve">
<style type="text/css">
	.st0{fill-rule:evenodd;clip-rule:evenodd;fill:#4F7023;}
	.st1{fill-rule:evenodd;clip-rule:evenodd;fill:#111927;}
	.st2{fill-rule:evenodd;clip-rule:evenodd;fill:#A6B2CC;}
	.st3{fill-rule:evenodd;clip-rule:evenodd;fill:#303F61;}
	.st4{fill-rule:evenodd;clip-rule:evenodd;fill:#25344F;}
	.st5{fill-rule:evenodd;clip-rule:evenodd;fill:#68748E;}
	.st6{fill-rule:evenodd;clip-rule:evenodd;fill:#649600;}
	.st7{fill-rule:evenodd;clip-rule:evenodd;fill:#9FEF00;}
	.st8{fill-rule:evenodd;clip-rule:evenodd;fill:#FFFFFF;}
	.st9{fill-rule:evenodd;clip-rule:evenodd;fill:#5F6B7F;}
	.st10{fill-rule:evenodd;clip-rule:evenodd;fill:#D3D9E6;}
	.st11{fill-rule:evenodd;clip-rule:evenodd;fill:#FFAF02;}
	.st12{fill:#68748E;}
	.st13{fill-rule:evenodd;clip-rule:evenodd;fill:#B87F05;}
	.st14{fill:none;}
	.st15{fill-rule:evenodd;clip-rule:evenodd;fill:#617090;}
	.st16{fill-rule:evenodd;clip-rule:evenodd;fill:#A5B1CC;}
	.st17{fill:#A5B1CC;}
	.st18{fill:#303F61;}
	.st19{fill-rule:evenodd;clip-rule:evenodd;fill:#27313D;}
	.st20{fill-rule:evenodd;clip-rule:evenodd;fill:#118A69;}
	.st21{fill-rule:evenodd;clip-rule:evenodd;fill:#57F3C3;}
	.st22{fill-rule:evenodd;clip-rule:evenodd;fill:#55ECC1;}
	.st23{fill-rule:evenodd;clip-rule:evenodd;fill:#5DEEC7;}
	.st24{fill-rule:evenodd;clip-rule:evenodd;fill:#BFFFEE;}
	.st25{fill-rule:evenodd;clip-rule:evenodd;fill:#CED8F0;}
	.st26{fill-rule:evenodd;clip-rule:evenodd;fill:#FCFCFE;}
	.st27{fill-rule:evenodd;clip-rule:evenodd;fill:#30343D;}
	.st28{fill-rule:evenodd;clip-rule:evenodd;fill:#0086FF;}
	.st29{fill-rule:evenodd;clip-rule:evenodd;fill:#8594B5;}
	.st30{fill-rule:evenodd;clip-rule:evenodd;fill:#4D6193;}
	.st31{fill:#C5FFF4;fill-opacity:0.502;}
	.st32{fill-rule:evenodd;clip-rule:evenodd;fill:#A4B1CD;}
	.st33{fill-rule:evenodd;clip-rule:evenodd;fill:#FF3E3E;}
	.st34{fill-rule:evenodd;clip-rule:evenodd;fill:#424E63;}
	.st35{fill:#424E63;}
	.st36{fill-rule:evenodd;clip-rule:evenodd;fill:#868C93;}
	.st37{fill-rule:evenodd;clip-rule:evenodd;fill:#CF3434;}
	.st38{fill-rule:evenodd;clip-rule:evenodd;fill:#DAE3FA;}
	.st39{fill-rule:evenodd;clip-rule:evenodd;fill:#8A5E01;}
	.st40{fill-rule:evenodd;clip-rule:evenodd;fill:#6B809B;}
	.st41{fill-rule:evenodd;clip-rule:evenodd;fill:#FFD67F;}
	.st42{fill-rule:evenodd;clip-rule:evenodd;fill:#573E08;}
	.st43{fill-rule:evenodd;clip-rule:evenodd;fill:url(#Path_226_);}
	.st44{fill:#FFAF02;fill-opacity:0.7882;}
	.st45{fill:#111927;}
	.st46{fill-rule:evenodd;clip-rule:evenodd;fill:#4F5D7A;}
	.st47{fill-rule:evenodd;clip-rule:evenodd;fill:#0261A3;}
	.st48{fill-rule:evenodd;clip-rule:evenodd;fill:#FF700A;}
	.st49{fill-rule:evenodd;clip-rule:evenodd;fill:#A2B2CB;}
	.st50{fill-rule:evenodd;clip-rule:evenodd;fill:#BD4C00;}
	.st51{fill-rule:evenodd;clip-rule:evenodd;fill:#A8B3CC;}
	.st52{fill-rule:evenodd;clip-rule:evenodd;fill:#A3B1CC;}
	.st53{fill-rule:evenodd;clip-rule:evenodd;fill:#A2B2CC;}
	.st54{fill-rule:evenodd;clip-rule:evenodd;fill:#A3B1CB;}
	.st55{fill-rule:evenodd;clip-rule:evenodd;fill:#1598F3;}
	.st56{fill-rule:evenodd;clip-rule:evenodd;fill:#FDFDF5;}
	.st57{fill-rule:evenodd;clip-rule:evenodd;fill:#4E5C79;}
	.st58{fill-rule:evenodd;clip-rule:evenodd;fill:#251D1B;}
	.st59{fill-rule:evenodd;clip-rule:evenodd;fill:#4D5A7A;}
	.st60{fill-rule:evenodd;clip-rule:evenodd;fill:#515A77;}
	.st61{fill-rule:evenodd;clip-rule:evenodd;fill:#FEFEFE;}
	.st62{fill-rule:evenodd;clip-rule:evenodd;fill:#B3B3B3;}
	.st63{fill-rule:evenodd;clip-rule:evenodd;fill:#8396B4;}
	.st64{fill-rule:evenodd;clip-rule:evenodd;fill:#FCFEFD;}
	.st65{fill-rule:evenodd;clip-rule:evenodd;fill:#BC4D00;}
	.st66{fill-rule:evenodd;clip-rule:evenodd;fill:#3BB1FF;}
	.st67{fill-rule:evenodd;clip-rule:evenodd;fill:#63C1FF;}
	.st68{fill-rule:evenodd;clip-rule:evenodd;fill:#BFE5FF;}
	.st69{fill:#CED8F0;}
	.st70{fill-rule:evenodd;clip-rule:evenodd;fill:#606C80;}
	.st71{fill-rule:evenodd;clip-rule:evenodd;fill:#FEFEFF;}
	.st72{fill-rule:evenodd;clip-rule:evenodd;fill:#8BBF0A;}
	.st73{fill:#0086FF;}
	.st74{fill:#055CA8;}
	.st75{fill-rule:evenodd;clip-rule:evenodd;fill:#055CA8;}
	.st76{fill-rule:evenodd;clip-rule:evenodd;fill:#D7CC75;}
	.st77{fill:#FFFFFF;}
	.st78{fill-rule:evenodd;clip-rule:evenodd;fill:#3C800C;}
	.st79{fill-rule:evenodd;clip-rule:evenodd;fill:#4EAB0C;}
	.st80{fill-rule:evenodd;clip-rule:evenodd;fill:#6FE81A;}
	.st81{fill-rule:evenodd;clip-rule:evenodd;fill:#6EE71A;}
	.st82{fill-rule:evenodd;clip-rule:evenodd;fill:#4E981B;}
	.st83{fill-rule:evenodd;clip-rule:evenodd;fill:#68D61A;}
	.st84{fill-rule:evenodd;clip-rule:evenodd;fill:#FFAF00;}
	.st85{fill-rule:evenodd;clip-rule:evenodd;fill:#FFC043;}
	.st86{fill-rule:evenodd;clip-rule:evenodd;fill:#E0940E;}
	.st87{fill-rule:evenodd;clip-rule:evenodd;fill:#CAFFA7;}
	.st88{fill-rule:evenodd;clip-rule:evenodd;fill:#A6F275;}
	.st89{fill-rule:evenodd;clip-rule:evenodd;fill:#327206;}
	.st90{fill-rule:evenodd;clip-rule:evenodd;fill:#67C624;}
	.st91{fill-rule:evenodd;clip-rule:evenodd;fill:#C17D10;}
	.st92{fill-rule:evenodd;clip-rule:evenodd;fill:#7E8BA3;}
	.st93{fill-rule:evenodd;clip-rule:evenodd;fill:#97A6BF;}
	.st94{fill-rule:evenodd;clip-rule:evenodd;fill:#BCC7E0;}
	.st95{fill-rule:evenodd;clip-rule:evenodd;fill:#606D82;}
	.st96{fill:#111927;stroke:#101927;stroke-miterlimit:10;}
	.st97{fill-rule:evenodd;clip-rule:evenodd;fill:#68758C;}
	.st98{fill-rule:evenodd;clip-rule:evenodd;fill:#96A6BC;}
	.st99{fill:#111927;stroke:#111927;stroke-miterlimit:10;}
</style>
<g>
	<g id="Page-1_3_">
		<g id="ProLabs--Homepage_3_" transform="translate(-323.000000, -857.000000)">
			<g id="Group-5-Copy_1_" transform="translate(315.000000, 822.000000)">
				<g id="dante_1_" transform="translate(27.000000, 52.000000)">
					<g id="Layer_x0020_1_3_">
						<g id="_2887644456224_2_">
							<path id="Path_815_" class="st1" d="M281,39.1c0,0-20.4-1.6-36.2,6.8c-15.8,8.5-20.4,35.2-20.9,36.2c-0.5,1-5.6,1.4-14.6-0.6
								c-9-2-14.7-4.5-16.5-3.8c-1.8,0.6-7.8,4.7-6.2,21.4c0.7,8,5.4,18,9.9,26.2c-0.4,0-0.8-0.1-1.3-0.2
								c-6.6-1.9-15.6-9.8-15.3-11.5c0.3-1.7,5.5-0.9,4.9-4.4c-0.5-3.5-10.1-12.4-10.2-18.5c-0.1-6.1,4-3.8,4-3.8s-1.6-4.6-6.6-6
								c-4.8-1.4-14-2.7-17.3,5.7c-3.4,8.5,6.1,16.2,4.1,17.8c-2,1.5-15.5-0.2-14.5,9.3c1,9.6,9.1,13.9,8.9,14.2s-1.3,0.2-1.3,0.2
								l0,0c-2-0.5-3.4-0.8-3.8-0.8c-2.7,0.2-9.9,3-11.7,2.5c-1.7-0.5-15.5-6.2-16.5-7.2c-1.1-1-15.3-20.6-17.9-23.1
								C99.5,97,88,96.7,88,96.7s-1.8,0.2-1.7-1.4c0.1-1.6,0.5-8.6-4.7-13.8c-5.2-5.2-12.3-5.5-13.3-6c-1-0.5-2.4-1.3-3.4-1.5
								c-1.1-0.2-13,0.6-13,0.6s-0.8,0.1-1.6-0.5c-0.8-0.6-3.3-1.3-7.8-0.8c-4.6,0.5-5.9,1.4-6.3,2c-0.4,0.6-1.3,1.7-2.1,2
								c-0.8,0.4-19,7.3-19.5,7.7s-1,1.5-1.6,7s-1.1,7.7-0.5,9.2c0.5,1.5,25,9.9,26.1,10s23.4-8.3,24-9.6c0.6-1.3,4.7-7.5,5.5-7.8
								c0.7-0.4,2.9-0.6,3.3,1.3s-4.2,2.6-9,9.6s-1.6,17,0.6,20.5c2.3,3.5,4.5,5.7,4.5,5.7s-4.8,7.4-2,22.9
								c2.8,15.6,14.2,19.6,16,21.7c1.7,2.1,0.8,5.7,1.6,6.6c0.9,0.9,28.1,5.8,28.1,5.8s4.2,2,4.8,4.7c0.6,2.7,1.1,12.2,2,15.1
								c0.2,0.6,0.5,1.2,1,1.8c0,0,0,0.1,0.1,0.1c0.1,0.2,0.2,0.3,0.4,0.5c2,2.3,10.3,7.5,9.6,8.7c-0.7,1.4-6.9,5.9-7.4,19.7
								c-0.3,7.4,2,14,4.2,18.5c1.6,3.3,3.7,6.6,6.3,9.8c7.8,9.9,34.6,25.3,49.5,17c2.3-1.3,29.5-19.2,29.6-18.8c0,0.1,0,1.1,0,2.6
								l0,0c0,1.7-0.2,4.3-0.4,7l0,0c0.5,2.3,1.6,2.6,1.7,3.2s-2.1,1.5-2.6,4.6c-1.2,7.8-3.7,14.9-3.7,15.1c-0.2,0.4-1,2.3-1,2.3
								s-1,0.2-1.9,1.7s-0.8,3-0.6,3.1c0.2,0.2-2.4,5.5-2.7,7c-0.3,1.5,1.2,4.2,1.2,4.2l0,0c-3.4,4.5-2.1,10.9,2.8,13.7l10.7,6
								c41.3,23.1,91.5,23.1,132.8,0.1l25.3-14.1c0,0,4-0.7,3.6-8.4c-0.4-5.1-3.2-20.5-7.4-24.3c-7.1-2.4-14.1-0.9-14.1-0.9
								s-1.3-6.5-1.4-7.2s-1.6-3.2-2.1-5.6c-0.5-2.5,1.2-4,1.2-5.9c0-1.9-0.6-5.5-0.6-5.5s21,13.9,27.4,17
								c6.4,3.2,10.4,4.4,10.4,4.4c9.6,0.7,26.6-0.7,40.1-18.2c3.5-4.5,6-9,8-13.4c1.6-4.1,2.8-9.3,2.6-14.9
								c-0.5-13.8-6.7-18.4-7.4-19.7c-0.8-1.5,9.4-7,10.8-11c1-2.9,1.4-12.5,2-15.1c0.6-2.7,4.8-4.7,4.8-4.7s27.3-4.9,28.1-5.8
								c0.9-0.9-0.1-4.4,1.6-6.6c1.7-2.1,13.1-6.1,16-21.7s-2-22.9-2-22.9s2.1-2.2,4.5-5.7c2.3-3.5,5.5-13.6,0.6-20.5
								c-4.8-6.9-9.4-7.6-9-9.6c0.4-1.9,2.6-1.6,3.3-1.3c0.7,0.4,4.7,6.7,5.5,7.8c0.7,1.2,22.9,9.7,24,9.6
								c1.1-0.1,25.6-8.5,26.1-9.9c0.5-1.5,0-3.6-0.5-9.2c-0.5-5.6-1-6.7-1.6-7c-0.5-0.4-18.7-7.4-19.5-7.7c-0.8-0.4-1.7-1.4-2.1-2
								c-0.4-0.6-1.8-1.5-6.3-2c-4.6-0.5-6.9,0.2-7.8,0.8c-0.8,0.6-1.6,0.5-1.6,0.5s-11.9-0.8-13-0.6c-1.1,0.2-2.5,1-3.4,1.5
								c-1,0.5-8.1,0.8-13.3,6c-5.2,5.2-4.7,12.1-4.7,13.8c0.1,1.6-1.7,1.4-1.7,1.4s-11.4,0.4-14.1,2.8
								c-2.6,2.5-16.9,22.1-17.9,23.1c-1.1,1-14.8,6.7-16.5,7.2c-1.7,0.5-8.9-2.3-11.7-2.5c-2.7-0.2-49.1,14.4-53.1,16.2
								c-4,1.8-6.4,3.1-6.3,1c0.1-2.1,1.4-3.6,1.4-3.6s18.3-25.4,19.8-42s-4.4-20.7-6.2-21.4c-1.8-0.6-7.5,1.7-16.5,3.8
								c-9,2-14.1,1.6-14.6,0.6c-0.5-1-5.2-27.7-20.9-36.2S281,39,281,39.1L281,39.1z"/>
							<path id="Path_814_" class="st5" d="M459.8,151.8l1.6-0.5c0,0,2.4,6.5,9.4,4.6c6.9-1.8,7.9-12.6,7.9-12.2
								c1.5,12.6-10,18.5-18.3,10.7L459.8,151.8L459.8,151.8z"/>
							<path id="Path_813_" class="st46" d="M102.7,151.8l-1.6-0.5c0,0-2.4,6.5-9.4,4.6c-6.9-1.8-7.9-12.6-7.9-12.2
								c-1.5,12.6,10,18.5,18.3,10.7L102.7,151.8L102.7,151.8z"/>
							<path id="Path_812_" class="st47" d="M224.3,206.8c0,0,10,19.6,21.8,32.4c11.8,12.9,16.9,15.4,16.9,15.4s6-1.1,11.3-2.6
								c5.3-1.5,7.5-3.8,7.5-3.8s-6.9,1.4-11.5,1.5c-4.7,0.2-5.3,0.2-5.3,0.2s-9.2-8.6-16.9-17.4c-7.6-8.7-8-10.9-8-10.9
								s13.3,12.7,20.7,17.1c7.4,4.5,10.1,5.6,10.1,5.6s9.7-2.9,23.7-15.8c14.1-12.9,16.3-17.4,16.3-17.4s-1.2,0.6-3.8,1.7
								c-2.6,1.1-4.2,1.4-4.2,1.4s10.2-10,18.3-19.9c1.3-1.5,2.4-3,3.5-4.4l-9.3,17.4c0,0,15.6-6.9,28.4-14.2
								c12.8-7.3,16.4-11.1,16.4-11.1s-0.8-3.6-0.8-5.8c0.1-2.3,0.1-2.4,0.1-2.4l-16.7,13.7c0,0,13.6-19.4,13.9-20
								c0.2-0.5-4.8-3.6-10.2-5c-5.4-1.5-8.5,0.8-8.5,0.8s2.1,0.2,5,1.2c2.8,1,4.4,2.7,4.4,3.1c0,0.4-8.6,15.8-13.7,22.9
								c-1.1,1.5-2.2,2.8-3.2,4.1c0.2-0.9,0.4-2.3,0.6-4.3c0.7-5.7,1.6-12.9,1.6-12.9s-20.7,23-35.2,33.9
								c-14.5,11-16.9,12.2-16.9,12.2s-15.9-10.1-25.3-18.8c-9.3-8.7-11.2-10.8-11.2-10.8s4.9,10.3,6.7,12.6
								c1.7,2.3,2.6,3.5,2.6,3.5s-7.8-5.7-17.3-17.1c-9.5-11.5-11.1-13.9-11.1-13.9s8.8,17.6,22,32c13.2,14.4,19.9,17.8,21.6,18.3
								c1.7,0.5,15.3-1.6,14.9-1.6c-0.5-0.1-5.4,3.7-8.9,5.7s-5.1,3-6,2.6C268,235.7,235.9,216.2,224.3,206.8L224.3,206.8z"/>
							<path id="Shape_39_" class="st47" d="M340.9,163.9c0.7,0.2,1.6,0.4,2.5,0.7c2.8,1,4.4,2.7,4.4,3.1c0,0.3-6.3,11.7-11.3,19.4
								l-1.4,7.7l17.4-27.6c0,0-2.4-1.7-5.8-2.6C343,163.8,340.9,163.9,340.9,163.9L340.9,163.9L340.9,163.9z M330.9,194.7
								c0.2-0.9,0.4-2.3,0.6-4.3c0.7-5.7,1.6-12.9,1.6-12.9c-2.2,9.4-17.3,29.9-17.3,29.9L330.9,194.7L330.9,194.7z"/>
							<path id="Path_811_" class="st47" d="M330.9,194.7c0.2-0.9,0.4-2.3,0.6-4.3c0.7-5.7,1.6-12.9,1.6-12.9
								c-2.2,9.4-17.3,29.9-17.3,29.9L330.9,194.7L330.9,194.7z"/>
							<path id="Path_810_" class="st47" d="M162.9,125.6c0,0-6.4-3.5-8.3-7c-1.8-3.6-0.3-6,0.5-6.7c0.8-0.8,11.7,1,12.8,0.2
								c1.1-0.8-0.5-2.6,0.5-4.6c1-2,3.9-2.5,4.3-3.1c0.4-0.6-2.3-1.4-3.7-5.9c-1.4-4.6,0.1-6,0.1-6s-0.7,2.1,1.7,6.1
								c2.5,4,5.8,5.3,6,6.3c0.3,1-3.6,2.2-4.8,4.4c-1.2,2.2,0.4,7.8,7.8,13.4c7.4,5.6,14.1,8.5,14.1,8.5s-8-1-16.2-6.1
								c-8.1-5.1-6-7-13.1-8.3c-7-1.3-7.3,3-4.8,5.6C162.2,124.6,162.9,125.6,162.9,125.6L162.9,125.6z"/>
							<path id="Path_809_" class="st48" d="M213.8,212.3c0,0,7.8,16.2,20.6,31.7s24.4,21.5,24.4,21.5s6.8-1.7,11.3-3.7
								c4.5-1.9,6.6-3.4,6.6-3.4l-1.1,53.4h-7.8c0,0-2.4,0.2-3.3,1.2c-0.9,1-1.5,3.3-2.1,3.5c-0.6,0.2-14.5-1.9-15.3-2.7
								s-2.6-2.3-5-3.4c-2.4-1.1-3.7,0.6-5.2-0.1c-1.6-0.7-2.2-2.3-4-3.3c-1.8-1-3.9-0.1-4.7-0.5c-0.7-0.5-1.3-2.7-3.7-3.9
								c-2.4-1.2-3-0.1-3.7-0.8c-0.5-0.7,0.3-4.3,0.9-4.8c0.6-0.5,0.6-0.2,1-0.2c0.4,0,6.2,4.6,5.6,3.6c-0.5-1-7.2-7.4-7.3-8.5
								s1.6-4.1,2.1-5.8c0.5-1.7,0.3-3.9,0.3-3.9l11.1,5.4l10.2,8.7c0,0-6-12.4-8.6-14.3c-2.6-1.9-15.8-10.1-15.4-11.8
								c0.4-1.7,1.5-8.4,2.4-8.1c0.9,0.3,12.7,7.2,12,5.7c-0.6-1.5-14.9-15.8-16.2-19c-1.4-3.3-3-4.9-1.6-6.6
								c1.4-1.5,2.3-4.1,2.5-5.7c0.2-1.5-3-10.7-4.6-16.3C213.6,214.5,213.8,212.3,213.8,212.3L213.8,212.3z"/>
							<path id="Path_808_" class="st48" d="M287.5,252.8l-2,59.1c0,0,8.1,0.2,8.9,0.4c0.8,0.3,3.5,4,3.7,4.2
								c0.3,0.2,9.6-1.2,12.6-2c3-0.8,3.5-1,3.5-1s1.6-1.7,4.2-2.6c2.6-0.8,5.5,0.1,6.1-0.2s12.7-6.6,13.7-7.4
								c1-0.9,3.1-5.6,3.2-6.1s-1.6-2.5-1.6-2.5s-4.7,4-5.8,4.4s-3.7,0.8-3.7,0.8s4.7-3.3,5.1-3.5s4.5-3.9,4.9-5
								c0.5-1.1,1.1-3.5,1.1-3.8c-0.1-0.4-2.4-1.8-2.8-1.5c-0.5,0.3-17.2,14.4-17.4,14c-0.3-0.5,1.1-5.4,1.7-6.3s17-19.4,17.3-20.1
								c0.4-0.6,1-2.6,1-2.6s-3.4-2.8-4.7-2.7c-1.3,0.1-13.3,7.6-12.7,6.1c0.6-1.4,19.3-19.3,19.7-20.6c0.4-1.3-1.4-3.8-0.6-6.3
								c0.6-2.6,4.6-12,4.3-13.5c-0.3-1.5-4.7-10.9-5.8-17.2c-1.2-6.3-0.8-9.9-1.5-9.9c-0.6,0-1.6-0.2-2.5,0.1
								c-0.8,0.3-17.3,6.9-17.7,8.4c-0.5,1.5-19.6,21.2-19.6,21.2S296.6,245,287.5,252.8L287.5,252.8z"/>
							<path id="Shape_38_" class="st8" d="M234.3,157.3c0,0-0.8-5.3-4.7-6.6c-3.8-1.3-5.9,3.7-3,9.5c3,5.8,12,11.8,13.7,12.7
								c1.6,0.8,2.1,1.1,2.6,1.4c0.5,0.3,4.9,14.6,14.1,23c9,8.5,19.1,12.9,20.8,13.3c1.6,0.5,3.1,0.6,3.1,0.6s6.5-0.7,15.3-7
								c8.9-6.2,12.3-11.8,12.9-12.6c0.5-0.7,0.4-1.5,0.4-1.5s-2.7-5.5-3.4-6c-0.6-0.5-17.6-8.2-18.1-8.7c-0.5-0.4-3-12.8-3.1-13
								c-0.1-0.3-3.2-2.6-3.2-2.7c0-0.2,0-0.9,0-1.2c0-0.3,0.3-0.4,0.3-0.4s6.2,1.7,6.5,1.9c0.3,0.1-0.6,2-0.7,2.3
								s2.4,10.9,2.7,11.7c0.4,0.7,18,8.8,18.4,9.1c0.5,0.2,4.4,5,4.3,5.4s-1.4,2.6-1.7,3.5c-0.4,1,2.9-1.8,2.9-1.8s1.5-1.8,4-7.6
								c0.6-1.5,1.2-2.9,1.6-4.3l-3.6-5.2l-4-1.4c-2,2.6-4.8,5-9.3,5.6c-5.4,0.6-11-5.1-10.5-10.3c0.1-1.5,0.6-3,1.4-4.3l-2-1
								l-0.2-0.2l-1.5-3.1c-3.9-0.7-9.6-1.9-9.6-1.9s-9-0.6-21-4.2c-11.9-3.6-12-4-13-4.1c-0.9-0.1-8.4,5-8.5,5.6s1.3,11.3,1.1,11.8
								c-0.2,0.5-0.8,1.3-1.2,1.1c-0.4-0.2-6.4-3.8-8.2-7.1c-1.8-3.3-1-4.4,0.5-4.1c1.5,0.2,2.7,2.3,2.9,2.7
								C233.7,158.7,234.6,158.1,234.3,157.3L234.3,157.3z M320.5,177.2c1-3.6,1.4-6.7,1.6-7.2c0.4-0.9,3.7-3.1,4-4
								s0.4-10.7,0.5-11.7c0.1-1.1-5.2-4.4-5.2-4.4s-0.8,17.5-0.8,17.8c0,0.3-0.5,0-1.2-0.6c-0.6-0.6-0.7-2.3-0.8-2.4
								c-0.1-0.1-3-0.1-3.2,0c-0.2,0.1,0.3,2.6-1.7,5.6c-0.2,0.3-0.4,0.5-0.5,0.7l3.9,1.3l0.3,0.2L320.5,177.2L320.5,177.2z
								 M294.6,162.1c1.9-2.6,4.8-4.2,7.3-4.3c3.8-0.1,6.6,1.5,6.8,1.1c0.2-0.5-1.4-2.2-6.1-2.4c-4.7-0.2-7.3,2.1-8.3,2.5
								c-0.3,0.1-1.3,0-2.6-0.3l1.1,2.4L294.6,162.1L294.6,162.1z"/>
							<path id="Shape_37_" class="st49" d="M245.2,179.3c2.2,5,6.1,12.7,11.8,18c9,8.5,19.1,12.9,20.8,13.3
								c1.6,0.5,3.1,0.6,3.1,0.6s6.5-0.7,15.3-7c8.9-6.2,12.3-11.8,12.9-12.6c0.5-0.7,0.4-1.5,0.4-1.5s-2.7-5.5-3.4-6
								c-0.6-0.5-17.6-8.2-18.1-8.7s-3-12.8-3.1-13c-0.1-0.3-3.2-2.6-3.2-2.7s0-0.9,0-1.2c0-0.3,0.3-0.4,0.3-0.4s6.2,1.7,6.5,1.9
								c0.3,0.1-0.6,2-0.7,2.3c-0.1,0.3,2.4,10.9,2.7,11.7c0.4,0.7,18,8.8,18.4,9.1c0.5,0.2,4.4,5,4.3,5.4c-0.1,0.4-1.4,2.6-1.7,3.5
								c-0.4,1,2.9-1.8,2.9-1.8s1.5-1.8,4-7.6c0.6-1.5,1.2-2.9,1.6-4.3l-3.6-5.2l-4-1.4c-2,2.6-4.8,5-9.3,5.6
								c-5.4,0.6-11-5.1-10.5-10.3c0.1-1.5,0.6-3,1.4-4.3l-2-1l-0.2-0.2l-1.5-3.1c-3.9-0.7-9.6-1.9-9.6-1.9s-9-0.6-21-4.2
								c-11.9-3.6-12-4-13-4.1c-0.5-0.1-3.4,1.7-5.7,3.3c4.9,1.4,11.9,3.3,13.3,3.9c2.4,1.1,6.1,6.9,10.4,8.8
								c4.3,1.9,8.1,3.6,8.1,3.6l3.6-2.3c0,0,3.3,2,3.3,3.6s0,9.7,0,9.7s-0.5,1.4-3.1,0.7c-2.6-0.6,1.7,2.7,1.7,2.7l4.1,2.4
								c0,0,2.1,1.5,3.2,4.6c1.1,3.1-1.2,5.1-1.2,5.1l-8.1,0.9c0,0,3.8,0.5,8.8-0.5c4.9-1,13.1-7.3,10.1-3c-3,4.4-8.5,7.2-13.2,7.1
								c-1.6,0-3-0.3-4.3-0.6c0.3,0.5,0.5,1,0.5,1.5c0,1.9-0.5,3.4-1.4,3.6C276.1,203.8,260.4,198.7,245.2,179.3L245.2,179.3z
								 M320.9,175.5l-5.9-8c-0.3,0.8-0.6,1.8-1.4,2.9c-0.2,0.3-0.4,0.5-0.5,0.7l3.9,1.3l0.3,0.2l3.2,4.6
								C320.6,176.6,320.7,176.1,320.9,175.5L320.9,175.5z M308.7,158.8l-0.5-0.7c-0.8-0.6-2.6-1.4-5.6-1.5
								c-4.7-0.2-7.3,2.1-8.3,2.5c-0.3,0.1-1.3,0-2.6-0.3l1.1,2.4l2,1c1.9-2.6,4.8-4.2,7.3-4.3C305.9,157.7,308.6,159.4,308.7,158.8
								C308.7,158.9,308.7,158.9,308.7,158.8L308.7,158.8z"/>
							<path id="Path_807_" class="st48" d="M280.9,50.3c0,0-15.7,0.1-23.7,1.9c-8,1.8-10.2,3.1-11,4.4c-0.8,1.3-7.7,17.8-9.5,29.5
								c-1.8,11.8-1.6,14.1-1.2,14.6c0.4,0.5,1.4,7.6,12.7,10.1c1.6,0.4,3.4,0.6,5,0.8c6.3,0.5,19.6-0.1,28.3-14
								c7.6-12,8.2-21.2,7.8-26.2c-0.3-1.6-0.5-2.8-0.5-3.5c-0.2-0.5-0.3-0.8-0.3-0.8c0.1,0,0.8-0.1,0.8-0.1h0.1
								c1.8-0.3,8.2,0.2,17.6-2.5c10.7-3,9.5-10.1-3.1-12.4S280.9,50.3,280.9,50.3L280.9,50.3z"/>
							<path id="Path_806_" class="st50" d="M319.4,61.8c0,0,4.4,10.3,4.5,22.5c0.1,12.2-1.6,17-1.3,17.6s6.6,2.7,6.6-10.3
								S320.8,58.5,319.4,61.8L319.4,61.8z"/>
							<path id="Path_805_" class="st48" d="M222.2,95.4c0,0,0.2,12.9,11.9,23.4s29.7,10.8,33.4,11.1c3.7,0.3,8.9-0.7,9.3-1.1
								c0.5-0.4-6.1-0.6-14.8-4c-8.7-3.4-10.8-6.1-10.1-5.9c0.6,0.2,16.6,5.8,33.7,4.8s33-8.1,32.6-7.7c-0.4,0.4-14.2,7.9-21.5,10.5
								s-13.1,7.4-11.8,12c1.4,4.6,29.2-0.2,43.8-8.8c14.6-8.7,24.6-18.5,27.4-26.9c2.7-8.4-8.9-6.2-8.9-6.9s6.3-2.6,11.4-3.7
								c5-1.1,6-0.1,6.2,1c0.3,1.1-1.1,26.6-31.9,41.8s-57,12.3-75,8.4c-18-3.9-40.7-16-49.8-28.1c-9.1-12-11.4-19.8-10.7-21.9
								C197.9,91.2,222.2,95.4,222.2,95.4L222.2,95.4z"/>
							<path id="Path_804_" class="st51" d="M372.2,152.9c3.1-1.1,34-10.8,37-11.6c3-0.7,9.9,0.3,9.4,0.8c-0.4,0.4-5.8,3.9-10,6.7
								c-2.7,1.8-4.8,3.5-4.6,3.6c0.7,0.5,57.2-26.2,60.7-27.4c3.5-1.1,11-1.1,10-1.7c-1-0.5-6-2.3-6.3-2.9c-0.4-0.6,0-10.1,0-10.1
								s-0.7-1.8-3-0.4c-2.3,1.5-13,11.6-12.8,10.4c0.3-1.2,11.2-15,11.8-15.3c0.5-0.4,10.2,0.1,10.2,0.1s1.8-0.2,2,1.6
								c0.2,1.8,0.3,16.9,0.5,17.2c0.3,0.4,2.1,0.9,4,2.5c1.8,1.5,2.7,3,2.9,2.9c0.1,0,5.8-5.7,7.3-14.6c0,0.1,0,0.2-0.1,0.3
								c0,0,1.4,2.5,1.3,7.7c0,1.9-0.4,3.6-0.8,5.1l0,0c-0.3,0.4-0.5,0.7-0.9,1.1c-4.7,5.7-10.5,8.5-14.4,9.8
								c-3.9,1.3-8.9,1.4-8.3,1c0.5-0.4,4.4-1.5,7.8-3.5c3.6-2,2.6-2.6,2.2-3.4c-0.5-0.7-5.9-5-13,0.9c-6.9,5.9-6.7,20.1,1.7,24.1
								c8.4,4,14.3-2.6,15.8-7.9c1.4-5.3-0.3-7.7,0.3-8.8c0.5-1.2,3.6-2.3,4.4-2.1c0.8,0.2,2.6,7-0.9,15.8
								c-3.4,8.7-11.6,11.4-12.1,12.2c-0.5,0.8-1.1,5.5-1.4,6c-0.3,0.5-50.8,9.1-49.6,9.5c1.2,0.4,4.2,2.2,4.2,2.2
								s-0.1,10.8-0.5,12.3c-0.4,1.5-2.1,6.6-8.4,9.3c-6.3,2.7-18,4-16.7,2.7c1.3-1.2,9.8-6,12-10.4c2.2-4.4-1.1-18.6-0.5-19.6
								c0.6-1.1,0.6-1.4,1.6-1.5c1-0.2,50.8-13.6,50.8-13.6s1-0.4-0.5-1.1c-1.1-0.5-4.5-2.6-6.9-6.7c-6.7,2.4-28.7,10.1-34.1,11.6
								c-6.5,1.7-9.8,1.4-10.7,1.4c-0.8,0,35.5-13.1,43.4-16c-0.3-0.7-0.5-1.5-0.6-2.2c-1.6-7.4,0.4-11.8,1.2-13.6
								c0.8-1.8-1.6,0.4-3,2.2c-1.4,1.8-1.6,3.4-1.8,3.5c-0.3,0.1-48.4,18.8-48.4,18.8s-1.8,2-0.1,5s4.8,3.5,5,3.8s-1,1.6-0.6,4.4
								c0.4,2.7,1.3,4.2,0.9,4c-0.4-0.3-2.8-1.8-3.4-3.8c-0.5-2,0.4-2.9,0.1-3.2c-0.4-0.3-4.6-1.5-5.5-6c-0.9-4.6,1-8.2,1-8.2
								s-14,4.1-15.5,4.6c-1.5,0.5-2.9,2.9-3.1,3.6c-0.2,0.6-0.3,0.8-0.4,0.9c-0.1,0.1-9.4,2.9-9.4,2.9s-2.8,1.5-3.1,5.8
								c-0.3,4.3,2.6,6.9,3.9,5.8c1.4-1.1,0.4-1.5,0.5-3.2c0.1-1.7,1-2,1.3-2.1c0.3-0.1,5.3-0.9,5.7-1.5c0.4-0.6,1.1-3.6,1.5-3.5
								c0.4,0.2-0.2,1.2,0.4,3.7c0.5,2.6,1.7,3.8,1.6,4.1c-0.1,0.3-9,3.4-8.3,3.4c0.7,0,8.9-1.1,8.9-0.9c0,0.3-0.2,1.2,1.3,2.7
								c1.5,1.6,5,2.2,4.6,2.3c-0.5,0.1-14.1,3.6-14.1,3.6s-8.8-0.8-10.6-10.6c-1.8-9.8,3.6-14.8,3.6-14.8l24-8.1
								c0,0,2.2-1.5,1.9-3.6c-0.3-2.1-4.7-2.2-5.9-2.1c-1.1,0.1-24.6,7.5-24.6,7.5C367,156.3,369.6,153.8,372.2,152.9L372.2,152.9z"
								/>
							<path id="Path_803_" class="st8" d="M464.8,125.1c-3,1-45.5,21.1-57.6,26.2c0,0-6.5,4.2-6.8,4.7s49.2-18.3,49.2-18.3
								s-1.6,1.7-3.7,8.2c4.2-1.6,6.9-2.7,7-2.7c0.3-0.1,0.5-1.7,1.8-3.5c1.4-1.8,3.8-4,3-2.2c-0.8,1.8-2.8,6.1-1.2,13.6
								c0.2,0.7,0.4,1.5,0.6,2.2c0,0,0.9,2.3,1.5,3.1l0,0c2.4,4,5.8,6.1,6.9,6.7c0.4,0.2,0.5,0.3,0.6,0.5c0,0,5.9,3.2,12.6,0.9
								c2.6-1.8,5.9-4.7,7.8-9.6c3.4-8.7,1.7-15.6,0.9-15.8c-0.8-0.2-3.9,0.9-4.4,2.1c-0.5,1.2,1.1,3.6-0.3,8.8
								c-1.4,5.3-7.4,12-15.8,7.9c-8.4-4-8.8-18.1-1.7-24.1c6.9-5.9,12.5-1.7,13-0.9c0.5,0.7,1.4,1.4-2.2,3.4s-7.3,3.1-7.8,3.5
								s4.4,0.4,8.3-1c3.9-1.3,9.6-4.1,14.4-9.8c0.3-0.4,0.5-0.7,0.9-1.1l0,0c0.5-1.5,0.8-3.2,0.8-5.1c0.1-5.1-1.3-7.7-1.3-7.7
								l0.1-0.3c-1.6,8.9-7.2,14.6-7.3,14.6c-0.1,0-1-1.5-2.9-2.9c-1.8-1.5-3.7-2.1-4-2.5c-0.3-0.4-0.4-15.5-0.5-17.2
								c-0.2-1.8-2-1.6-2-1.6s-9.6-0.5-10.2-0.1c-0.5,0.4-11.5,14.1-11.8,15.3c-0.3,1.2,10.5-8.9,12.8-10.4c2.3-1.5,3,0.4,3,0.4
								s-0.4,9.5,0,10.1c0.4,0.6,5.4,2.4,6.3,2.9C475.8,123.9,468.3,123.9,464.8,125.1L464.8,125.1z"/>
							<path id="Path_802_" class="st47" d="M480.8,94.9c1.4,10.1,11.8,7.3,11,17.7c-0.1,0.9-0.2,1.8-0.4,2.6c0,0,1.4,2.5,1.3,7.7
								c0,1.9-0.4,3.6-0.8,5.1c4.3-5.7,7.2-13.8,4.8-19.2c-2.6-5.8-11.4-8.8-12.2-14.7c-0.9-5.8,4.4-9.6,5.4-10.4
								C490.7,82.8,479.4,84.8,480.8,94.9L480.8,94.9z"/>
							<path id="Path_801_" class="st5" d="M425.4,191c0-2.1-1.3-2-1.3-2l-9.6,0.6c0.4,3.6,0.4,7.2-0.5,9.1
								c-2.2,4.4-10.7,9.2-12,10.4c-1.3,1.2,10.4,0,16.7-2.7c3.1-4,6.3-8,6.4-9.1C425.3,196,425.4,193.1,425.4,191L425.4,191z"/>
							<path id="Path_800_" class="st5" d="M413.8,183.5l9.7-1.1c-1.2-0.4,49.4-8.9,49.6-9.5c0.3-0.5,0.8-5.2,1.4-6l-61,13.2
								C413.6,181,413.7,182.2,413.8,183.5L413.8,183.5z"/>
							<path id="Path_799_" class="st46" d="M419,149.3l-1.8,7.7c4.5-1.7,9.6-3.7,14.5-5.7c0.5-2.2,1.2-5.7,1.6-7.5
								C428.6,145.6,423.7,147.5,419,149.3L419,149.3z"/>
							<path id="Path_798_" class="st8" d="M365.7,158.7c0,0,23.5-7.4,24.6-7.5c0,0,15.2-6.4,19.4-6.3c1.7,0.1,2.7,0.4,3.4,0.6
								c2.7-1.8,5-3.4,5.3-3.6c0.5-0.5-6.4-1.5-9.4-0.8c-3,0.7-33.9,10.6-37,11.6C369.6,153.8,367,156.2,365.7,158.7L365.7,158.7z"
								/>
							<path id="Path_797_" class="st46" d="M385.7,181.8c0-0.3-8.2,0.9-8.9,0.9l0,0l-7.8,2.4c3.2,4.9,8.6,5.4,8.6,5.4
								s13.6-3.5,14.1-3.6c0.5-0.1-3.1-0.7-4.6-2.3C385.6,182.9,385.7,182,385.7,181.8L385.7,181.8z"/>
							<path id="Path_796_" class="st52" d="M391.3,193.1c0,0,2.7,1.2,6,0.8c3.3-0.4,9.1-1.7,10.6-1.8c1.5-0.2,2.4,0.6,2.4,0.6
								s0,3.4-1.4,5.5c-1.5,2.1-9.9,6.9-10.3,6.9c-0.5,0-9.1,1-11-4.8C385.7,194.4,391.3,193.1,391.3,193.1L391.3,193.1z"/>
							<path id="Path_795_" class="st53" d="M432.8,189.4c0,0,0.1,6.2-0.6,8.7s-2.8,3.9-2.5,4.1c0.4,0.2,1.6-0.3,1.9-0.4
								c0.4-0.2,3.8-1.7,4.7-4.7c0.9-3,0.7-5.3,0.7-5.3s0-1.3-1.3-2C434.5,189,432.8,189.4,432.8,189.4L432.8,189.4z"/>
							<path id="Path_794_" class="st54" d="M394.8,212.5c0,0,0.8,2.3,2.8,2.3c2,0,12,0.3,18-1.7c5.9-1.9,9.2-5.3,9.8-4.7
								c0.5,0.6-2,9.1-8.4,12.6c-6.4,3.5-19.3,2.5-20.6,1.8c-1.4-0.7-4.2-2.5-4.1-6.3C392.3,212.5,394.8,212.5,394.8,212.5
								L394.8,212.5z"/>
							<path id="Path_793_" class="st54" d="M392.2,227.3c0,0,1.1,2,3.9,2.5c2.8,0.4,14.8,0.7,19.6-1c4.8-1.7,5.9-3.2,5.9-3.2
								s-1.8,9.8-6.8,12.1c-5,2.3-18.9,1.2-20.8,0.4C392.2,237.3,389.5,231.9,392.2,227.3L392.2,227.3z"/>
							<path id="Path_792_" class="st54" d="M391.3,243.4c0,0,2.7,2.9,5.6,3.1c2.8,0.1,13.7,0.8,16.5-0.2c2.8-1,3.1-1.6,3.1-1.6
								s-0.4,5.6-4.2,8.9c-3.8,3.4-5.8,3.2-9.3,3c-3.7-0.2-8.9,0.4-11-3.4C389.7,249.5,389.7,246.1,391.3,243.4L391.3,243.4z"/>
							<path id="Path_791_" class="st54" d="M382.6,206.7c0,0,0.9,7.1,0.8,14.9c-0.1,7.7-1,13.6-1.8,13.2
								c-0.9-0.4-9.9-1.9-11.1-10.2c-1.3-8.3-0.4-16.9,2.6-19.2C376.1,202.9,382.5,202.8,382.6,206.7L382.6,206.7z"/>
							<path id="Path_790_" class="st8" d="M403.3,246.8c-2.8-0.1-5.3-0.3-6.5-0.3c-2.8-0.1-5.6-3.1-5.6-3.1
								c-1.6,2.7-1.6,6.1,0.5,9.8c1.6,2.8,5,3.2,8,3.3L403.3,246.8L403.3,246.8z"/>
							<path id="Path_789_" class="st8" d="M394,238c0.8,0.4,4.2,0.8,8.1,0.9l2.9-8.9c-3.9,0.1-7.6-0.1-9-0.3
								c-2.8-0.4-3.9-2.5-3.9-2.5C389.5,231.9,392.2,237.2,394,238L394,238z"/>
							<path id="Path_788_" class="st8" d="M396.3,222.7c0.7,0.4,4.6,0.8,8.9,0.6l3.6-9c-4.9,0.5-9.9,0.4-11.2,0.4
								c-2,0-2.8-2.3-2.8-2.3s-2.5,0-2.6,3.9C392.1,220.3,394.9,222,396.3,222.7L396.3,222.7z"/>
							<path id="Path_787_" class="st8" d="M377.7,233.4c0.4-8.7,0.8-23.5,0.5-25.4c-0.4-2.6-2.6-3.9-2.6-3.9
								c-0.9,0.3-1.8,0.7-2.5,1.3c-3,2.4-4,10.9-2.6,19.2C371.2,229.5,374.8,232,377.7,233.4L377.7,233.4z"/>
							<path id="Path_786_" class="st8" d="M387.6,200.5c1,0,2.2-0.3,3.3-1c2.8-1.8,2.3-2.6,3.6-2.9c1.3-0.4,10-1,11.1-2
								c1.1-1,0.2-2.2-1.1-1.9l0,0c-2.3,0.5-5.2,1-7.2,1.3c-3.3,0.4-6-0.8-6-0.8s-5.5,1.3-3.7,7.1
								C387.6,200.3,387.6,200.4,387.6,200.5L387.6,200.5z"/>
							<path id="Path_785_" class="st46" d="M393.4,163.2c1.1,0,2.1,0.4,3,0.9l0,0l0,0c0.2,0.2,0.2,0.5-0.1,0.8
								c-0.3,0.4-1,0.1-1.1,0.1l0,0l0,0l0,0l0,0l0,0l0,0l0,0l0,0c-0.4-0.1-0.7-0.2-1.1-0.2c-1.9,0-3.4,1.5-3.4,3.4
								c0,1.8,1.6,3.4,3.4,3.4c0.9,0,1.8-0.4,2.4-1c0.6-0.5,1-0.1,1.3,0.2c0.3,0.3,0,0.8,0,0.8c-1,1.4-2.6,2.3-4.4,2.3
								c-2.9,0-5.3-2.4-5.3-5.3C388.1,165.6,390.5,163.2,393.4,163.2L393.4,163.2z"/>
							<path id="Path_784_" class="st46" d="M396.6,176.1c0.9-0.1,1.8,0,2.6,0.4l0,0l0,0c0.2,0.1,0.3,0.4,0,0.7
								c-0.2,0.3-0.8,0.2-0.9,0.2l0,0l0,0l0,0l0,0l0,0l0,0l0,0l0,0c-0.3-0.1-0.6-0.1-0.9,0c-1.6,0.3-2.6,1.6-2.4,3.2
								c0.3,1.5,1.6,2.6,3.2,2.4c0.7-0.1,1.5-0.5,1.8-1.1c0.5-0.5,0.8-0.2,1,0c0.3,0.2,0.1,0.6,0.1,0.6c-0.6,1.3-1.8,2.2-3.3,2.4
								c-2.5,0.4-4.7-1.3-5-3.7C392.5,178.8,394.1,176.5,396.6,176.1L396.6,176.1z"/>
							<path id="Path_783_" class="st28" d="M497,82c0,0,0-0.8,0.5-1.8c0.5-1,1.5-1.1,2-1.1c0.5,0,12.3,1,12.8,0.7
								c0.4-0.4,0.9-2,2.9-2.6c1.9-0.5,4.5,0,4.7,0c0.2,0.1,0.5,0.3,0.4,0.3s-3.5,0-4.8,2.3c-1.5,2.2-2.5,5.8-2.5,5.8
								s-2.1,1-2.5,0.8C510.1,86.3,497,82,497,82L497,82z"/>
							<path id="Path_782_" class="st8" d="M517,82.1c0,0,8.3,5.7,8.8,5.5s5.5-1.5,5.5-1.5l-8-7c0,0-2.4-0.3-3.8,0.5
								C517.9,80.3,517,82.1,517,82.1L517,82.1z"/>
							<path id="Path_781_" class="st51" d="M515.4,87.4c0,0,8.6,3.3,9.1,2.9c0.5-0.4,11.5-3.1,11.5-3.1s-4.9-4.1-4.6-4
								s12.8,4.2,12.9,4.3c0.1,0.1,0.8,11.8,0.5,11.8c0,0-0.5,0.2-1.5,0.5v-6.3l-2.2,0.6v6.4l-2.6,0.8v-6.4l-2.2,0.6v6.5l-2.6,0.8
								v-6.6l-2.2,0.6v6.7c-0.9,0.3-1.7,0.5-2.6,0.8v-6.7l-2.2,0.6v6.7c-1.6,0.5-2.7,0.8-2.7,0.8c-0.2-0.3-0.5-10.7-0.3-10.9
								c0.3-0.2,16.1-5.7,16.3-6.4c0.4-0.6-16.4,4-17,3.8c-0.5-0.2-8.6-3.3-8.6-3.3s0.7,11.7,0.5,11.4c-0.3-0.3-1.4-0.8-1.4-2.6
								c0-1.8-0.7-9.6-0.5-9.8C514,87.8,515.4,87.4,515.4,87.4L515.4,87.4z"/>
							<path id="Path_780_" class="st47" d="M514.2,81.9l-16.5-2.2c-0.1,0.1-0.2,0.3-0.3,0.5c-0.5,1-0.5,1.8-0.5,1.8
								s13.1,4.3,13.4,4.5s2.5-0.8,2.5-0.8S513.4,83.7,514.2,81.9L514.2,81.9z"/>
							<path id="Path_779_" class="st51" d="M235.9,317.7c0,0-4.2,13.7-4.7,15.3c-0.5,1.6,0.3,7.4,0.7,7.2s3.9-4.1,4.7-5.4
								c0.5-1,4-10.8,5.6-15.2c0.1-0.3,0.2-0.5,0.2-0.8c-0.6,0.5-2.1,0.5-3.6,0.1c-1.4-0.5-2.4-1.2-2.7-1.9
								C236.1,317.1,236,317.4,235.9,317.7L235.9,317.7z"/>
							<path id="Path_778_" class="st55" d="M240.4,314.8c1.7,0.5,2.9,1.7,2.6,2.6c-0.3,0.9-1.9,1.1-3.7,0.5
								c-1.7-0.5-2.9-1.7-2.6-2.6S238.7,314.2,240.4,314.8z"/>
							<path id="Path_777_" class="st56" d="M232.4,333.6c0.4-0.8,5-15.5,5-15.5c-0.5-0.4-1-0.8-1.2-1.2c-0.1,0.2-0.2,0.5-0.3,0.7
								c0,0-4.2,13.7-4.7,15.3c-0.5,1.5,0.1,6,0.5,7C231.7,340,232.1,334.5,232.4,333.6L232.4,333.6z"/>
							<path id="Path_776_" class="st57" d="M240.2,319.1l-6.3,19c1.1-1.2,2.3-2.6,2.6-3.4c0.5-1,4-10.8,5.6-15.2
								c0.1-0.3,0.2-0.5,0.2-0.8C242,319.1,241.1,319.2,240.2,319.1z"/>
							<path id="Path_775_" class="st51" d="M226.6,312.9c0,0-4.6,12.8-5.1,14.3c-0.5,1.5-0.1,7,0.4,6.8c0.2-0.1,1.1-0.8,2-1.8l0,0
								l6.8-17.8c-0.4-0.1-0.8-0.2-1.2-0.4c-1.3-0.5-2.2-1.3-2.5-2C226.8,312.4,226.7,312.6,226.6,312.9L226.6,312.9z"/>
							<path id="Path_774_" class="st55" d="M231,310.3c1.6,0.6,2.6,1.7,2.4,2.6c-0.3,0.8-1.8,1-3.5,0.4c-1.6-0.6-2.6-1.7-2.4-2.6
								C227.8,309.8,229.4,309.7,231,310.3L231,310.3z"/>
							<path id="Path_773_" class="st56" d="M222.5,327.8c0.4-0.8,5.5-14.5,5.5-14.5c-0.5-0.4-0.9-0.8-1.1-1.2
								c-0.1,0.2-0.2,0.5-0.3,0.7c0,0-4.6,12.8-5.1,14.3c-0.5,1.4-0.2,5.7,0.2,6.7C221.6,333.9,222.2,328.6,222.5,327.8L222.5,327.8
								z"/>
							<path id="Path_772_" class="st51" d="M218.7,307.7c0,0-5,12.4-5.7,13.9c-0.5,1.5-0.4,6.9,0.1,6.7c0.2-0.1,1.1-0.8,2-1.7
								l7.4-17.3c-0.4-0.1-0.8-0.2-1.2-0.4c-1.3-0.5-2.2-1.3-2.5-2C218.9,307.2,218.8,307.4,218.7,307.7L218.7,307.7z"/>
							<path id="Path_771_" class="st55" d="M223.2,305.3c1.6,0.6,2.6,1.8,2.3,2.6c-0.4,0.8-1.9,0.9-3.5,0.3s-2.6-1.8-2.3-2.6
								C220,304.7,221.5,304.7,223.2,305.3z"/>
							<path id="Path_770_" class="st56" d="M214.1,322.2c0.4-0.7,5.9-14,5.9-14c-0.5-0.4-0.8-0.8-1-1.2c-0.1,0.2-0.3,0.5-0.4,0.6
								c0,0-5,12.4-5.7,13.9c-0.5,1.4-0.4,5.7-0.1,6.6C213,328.2,213.8,323,214.1,322.2L214.1,322.2z"/>
							<path id="Path_769_" class="st51" d="M212.3,302.6c0,0-4.6,11.2-5.1,12.6c-0.5,1.4-0.3,6.2,0.1,6.1c0.2-0.1,1-0.7,1.8-1.5
								l6.8-15.6c-0.4-0.1-0.7-0.2-1.1-0.4c-1.1-0.5-1.9-1.2-2.2-1.8C212.5,302.3,212.4,302.5,212.3,302.6z"/>
							<path id="Path_768_" class="st47" d="M216.2,300.6c1.5,0.5,2.4,1.6,2.1,2.4c-0.3,0.7-1.7,0.8-3.1,0.3
								c-1.5-0.5-2.4-1.6-2.1-2.4C213.4,300.1,214.9,299.9,216.2,300.6L216.2,300.6z"/>
							<path id="Path_767_" class="st56" d="M208.1,315.9c0.4-0.7,5.4-12.7,5.4-12.7c-0.5-0.4-0.8-0.7-0.9-1.1
								c-0.1,0.2-0.2,0.4-0.3,0.6c0,0-4.6,11.2-5.1,12.6c-0.5,1.2-0.4,5.1,0,5.9C207.1,321.2,207.8,316.5,208.1,315.9z"/>
							<path id="Path_766_" class="st56" d="M206.5,309.9c0.3-0.5,4.7-10.3,4.7-10.3c-0.5-0.3-0.8-0.6-1-0.9
								c-0.1,0.2-0.2,0.3-0.3,0.5c0,0-3.9,9.1-4.4,10.2c-0.4,1-0.1,4.1,0.3,4.8C205.7,314.2,206.1,310.5,206.5,309.9L206.5,309.9z"
								/>
							<path id="Path_765_" class="st58" d="M210,304.5l1,0.2c0.4,1.3,0.5,2.3,1.5,3.3c0.7,0.7,1.9,1.4,2.9,1.6l1.3,0.3l0.1,1.4
								c0.1,1.2,1.1,2.6,1.9,3.3c0.6,0.5,1.4,1.1,2.2,1.3c0.6,0.2,1.4,0.2,1.9,0.5c0.5,0.4,0.9,1.2,1.4,1.8c0.6,0.8,1.4,1.5,2.2,2.1
								c0.8,0.5,1.7,0.9,2.7,1.1c0.7,0.1,1.6,0.1,2.3,0.3c0.8,0.3,1.8,1.2,2.5,1.7c0.9,0.7,1.8,1.4,2.8,1.9c0.6,0.3,1.5,0.6,2.2,0.6
								c0.4,0,0.7-0.1,1.1,0c1.2,0.2,1.8,1.3,1.6,2.5c0,0.1-0.1,0.3-0.1,0.4c-0.1,0.3-0.2,0.5-0.3,0.8c-0.2,0.4-0.3,0.7-0.5,1.1
								l-0.4,0.9l-0.9,0.2c-1.6,0.4-4-0.3-5.5-0.9c-1.1-0.5-2.2-1.1-3.1-1.9c-0.4-0.3-0.7-0.6-1.1-1c-0.2,0-0.4,0-0.5-0.1
								c-0.6-0.1-1.2-0.2-1.8-0.4c-1.8-0.5-3.5-1.4-4.8-2.6c-0.9-0.8-1.9-1.7-2.6-2.7c-0.2-0.3-0.4-0.5-0.5-0.8h-0.1
								c-0.5-0.1-1-0.2-1.5-0.4c-1.4-0.5-2.6-1.2-3.6-2.3c-0.8-0.8-1.4-1.8-1.8-2.9c-0.1-0.3-0.3-0.6-0.4-0.9
								c-0.3-0.1-0.5-0.2-0.8-0.3c-1.1-0.5-1.9-1.2-2.6-2.2c-0.8-1.1-1.2-2-1.5-3.3c-0.9-0.5-1.8-1.3-2.3-2.3
								c-0.5-1.3-0.1-2.9,0.6-4l1.5-2.3C207.5,302.5,208.7,304.2,210,304.5L210,304.5z"/>
							<path id="Path_764_" class="st55" d="M207.1,303.7c0,0,0.1,0.9,0.8,1.6c0.7,0.7,1.8,0.9,1.8,0.9s-0.2,1.3,1.4,2.9
								c1.6,1.6,3.8,2.1,3.8,2.1s0.3,2.5,2.5,4.5s4.1,1.8,4.4,2c0.3,0.2,1,2.1,3.6,3.9c2.6,1.7,4.9,1.4,5.6,1.5
								c0.6,0.2,2.6,2.4,5,3.5c2.5,1.2,3.7,0.8,3.8,0.8s-0.8,2.2-0.8,2.2s-1.6,0.4-4.4-0.8c-2.7-1.2-3.7-2.7-4.2-2.9
								c-0.5-0.2-3.7,0-6.8-2.6c-3.2-2.6-2.6-3.6-3.1-3.7c-0.5-0.2-3.2-0.3-4.9-2.3c-1.8-2-1.9-4.1-2.2-4.2c-0.4-0.1-2-0.1-3.3-1.9
								c-1.3-1.8-1.2-3.3-1.4-3.4c-0.1-0.1-1.8-0.9-2.2-1.9C206.2,305,207.1,303.7,207.1,303.7L207.1,303.7z"/>
							<path id="Path_763_" class="st51" d="M247.4,320.2l-4,13.9l16,3.5c0,0-1.7-4.9-1.6-9.4c0.1-4.4,2.1-7.3,1.8-7.4
								c-0.3-0.1-9.4-1.4-10.5-1.8c-1.2-0.4-1.1-0.9-1.2-0.7C247.8,318.5,247.4,320.2,247.4,320.2z"/>
							<path id="Path_762_" class="st51" d="M301.2,321.3c0,0,1.4,2,1.7,6.3c0.4,4.3-1.6,9-1.3,9.2c0.4,0.1,17.7-3.2,17.7-3.2
								l0.1,2.1c0,0,7.1-1.2,7.3-5.7c0.2-4.5-1.8-14.1-2.7-14.9c-1-0.8-3.9-0.4-5.2,0.1c-1.3,0.5,0.1,3.4,0.2,5.7
								c0,2.3-0.5,4.3-0.7,3.6s-1.1-3.3-1.9-4.5c-0.8-1.2-0.8-1.3-1.3-1.3C314.4,318.9,301.1,321.3,301.2,321.3L301.2,321.3z"/>
							<path id="Path_761_" class="st51" d="M327.1,315.1c0,0,1.6,5.9,2,9.8c0.4,3.7,0.3,5.6,0.3,5.6s12-4.8,15.7-10.7
								c3.7-5.8,0.1-15.8,0.1-15.8s-1.5,2.3-3.9,3.8C338.7,309.5,327.1,315.1,327.1,315.1L327.1,315.1z"/>
							<path id="Path_760_" class="st47" d="M349.9,300.8c0,0,2.2,12.1,3.2,13.9c1,1.8,4.4,2.4,9.6,1.8c5.3-0.6,6.3-2.8,6-4.2
								c-0.3-1.4-3.3-15.9-4-17.1c-0.7-1.3-9.6-1-8.4-0.5c1.2,0.4,5.3,0.4,6.2,1s1.1,4.1,0.9,4.7c-0.2,0.5-4.6,2-8.1,1.9
								c-3.7-0.1-5.3-2.4-5.5-2.4C349.6,299.8,349.9,300.8,349.9,300.8L349.9,300.8z"/>
							<path id="Path_759_" class="st59" d="M315.1,329.7c-3.4,1-10.7,2-10.9,1.8s0.3-3.2-0.3-4.8c-0.5-1.6-2-3.7-2-3.7
								c0.4,1,0.8,2.6,0.9,4.6c0.4,4.3-1.6,9-1.3,9.2c0.4,0.1,17.7-3.2,17.7-3.2l0.1,2.1c0,0,0.8-0.2,1.9-0.5
								c1.4-14.9-2.9-19.8-2.9-19.8c-0.6,0.9,0.5,3.4,0.5,5.4c0,2.3-0.5,4.3-0.7,3.6c0,0,0.3,3.5,0.3,3.8
								C318.4,328.8,318.5,328.7,315.1,329.7L315.1,329.7z"/>
							<path id="Path_758_" class="st59" d="M259.4,337.7c0,0-1.7-4.9-1.6-9.4c0-1.6,0.3-3,0.6-4.2c-2.4,1.5-2.3,5-3.6,6.1
								c-1.3,1.1-7.5-0.6-7.5-1.9c0-1.4,1.8-9.1,1.8-9.1c-0.1,0-0.2,0-0.2-0.1c-1.2-0.4-1.1-0.9-1.2-0.7c-0.1,0.2-0.5,1.8-0.5,1.8
								l-4,13.9L259.4,337.7L259.4,337.7z"/>
							<path id="Path_757_" class="st59" d="M341.3,316.7c-0.8,1.7-9.4,7.2-9.8,7.2c-0.4,0,0-0.7-1-3.6s-2.9-3.3-2.9-3.3
								c0.5,2.1,1.3,5.4,1.6,7.8c0.4,3.7,0.3,5.6,0.3,5.6s12-4.8,15.7-10.7c3.7-5.8,0.1-15.8,0.1-15.8s-1.5,2.3-3.9,3.8
								c-0.2,0.1-0.3,0.2-0.5,0.3C341.3,310.4,341.9,315.3,341.3,316.7L341.3,316.7z"/>
							<path id="Path_756_" class="st55" d="M352.8,301.7l3.3,14.8c1.6,0.4,3.8,0.4,6.6,0c5.3-0.6,6.3-2.8,6-4.2
								c-0.3-1.4-3.3-15.9-4-17.1c-0.7-1.2-9.6-1-8.4-0.5c1.2,0.4,5.3,0.4,6.2,1s1.1,4.1,0.9,4.7c-0.2,0.5-4.6,2-8.1,1.9
								C354.3,302.3,353.5,302,352.8,301.7L352.8,301.7z"/>
							<path id="Path_755_" class="st1" d="M243.2,154.6c0,0,2-2,6.8-2.4s7.6,1.3,7.6,1.3s0.4,2.6,6.8,6.2c6.5,3.6,8.1,3.6,9.1,3.5
								c1-0.2,0.9-3.4,0.9-3.4s1.6,1.4,2.1,3.5s0.4,2.4-0.1,3c-0.5,0.7-2.2,3.3-3.3,3.2c-1.1-0.1-2.4-0.1-2.4-0.1s-2.6,5.4-3.3,5.5
								c-0.7,0.1-6.9,1.5-13.7-3.4s-8.2-10.8-8.2-10.8s2-1.1,5.1-0.7c3,0.4,3.9,1,3.9,1s-3.3-3.6-6-4.8
								C245.8,155,243.2,154.6,243.2,154.6L243.2,154.6z"/>
							<path id="Path_754_" class="st8" d="M253.9,164.7c0,0,1.6,4.3,5.7,5.5c4.2,1.2,5.4-0.5,5.6-1c0.3-0.5,0.2-0.9,0-1
								C265.2,168.1,261.7,165.7,253.9,164.7L253.9,164.7z"/>
							<path id="Path_753_" class="st1" d="M274.5,177.6c0,0,0,2.7,1.4,4.3s5,4.4,5,4.4s3.7-2.8,5-4.4s1.4-4.3,1.4-4.3
								s-3.5-5.1-3.4-4.9c0.1,0.1,1.1,4.2,1.6,6.3c-1.5,1.2-2.2,1.6-4.7,2.2C277.5,180.4,277.3,179.9,274.5,177.6L274.5,177.6z"/>
							<path id="Path_752_" class="st1" d="M271.9,193.2c0,0,4.6,2.7,11.7,0.8c7.1-1.9,10.8-6.5,10.8-6.5s-0.5-1.7-1.1-2.6
								c-0.6-0.9-0.6-0.9-0.6-0.9s2.3-0.4,4.7,1.4c2.5,1.7,0.9,7.8,0.9,7.8l-1.4-2.6C296.9,190.5,284.9,204.8,271.9,193.2
								L271.9,193.2z"/>
							<path id="Path_751_" class="st60" d="M294.6,162.1c1.9-2.6,4.8-4.2,7.3-4.3c0.5,0,0.9,0,1.3,0.1c3.2,0.3,5.3,1.5,5.5,1.1
								c0.2-0.5-1.4-2.2-6.1-2.4c-4.7-0.2-7.3,2.1-8.3,2.5c-0.3,0.1-1.3,0-2.6-0.3l1.1,2.4L294.6,162.1L294.6,162.1z"/>
							<path id="Path_750_" class="st60" d="M320.5,177.2c1-3.6,1.4-6.7,1.6-7.2c0.4-0.9,3.7-3.1,4-4s0.4-10.7,0.5-11.7
								s-5.2-4.4-5.2-4.4s-0.8,17.5-0.8,17.8c0,0.3-0.5,0-1.2-0.6c-0.6-0.6-0.7-2.3-0.8-2.4c-0.1-0.1-3-0.1-3.2,0
								c-0.2,0.1,0.3,2.6-1.7,5.6c-0.2,0.3-0.4,0.5-0.5,0.7l3.9,1.3l0.3,0.2L320.5,177.2L320.5,177.2z"/>
							<path id="Path_749_" class="st60" d="M288.4,160.2c0.3,0.1-0.6,2-0.7,2.3c-0.1,0.3,2.4,10.9,2.7,11.7
								c0.4,0.7,18,8.8,18.4,9.1c0.5,0.2,4.4,5,4.3,5.4s-1.4,2.6-1.7,3.5c-0.4,1,2.9-1.8,2.9-1.8s1.5-1.8,4-7.6
								c0.6-1.5,1.2-2.9,1.6-4.3l-3.6-5.2l-4-1.4c-2,2.6-4.8,5-9.3,5.6c-5.4,0.6-11-5.1-10.5-10.3c0.1-1.5,0.6-3,1.4-4.3l-2-1
								l-0.2-0.2l-1.5-3.1c-2.7-0.5-6.1-1.2-8.1-1.6l0.8,1.7C285,159.2,288.2,160.1,288.4,160.2L288.4,160.2z"/>
							<path id="Path_748_" class="st61" d="M272.8,97.8c-21.7-0.4-31.9-7.6-36.1-11.8c0,0.1,0,0.2,0,0.3
								c-1.8,11.8-1.6,14.1-1.2,14.6c0.4,0.5,1.4,7.6,12.7,10.1c1.6,0.4,3.4,0.6,5,0.8c6.3,0.5,19.6-0.1,28.3-14l0,0
								C278.6,97.8,275.7,97.8,272.8,97.8L272.8,97.8z"/>
							<path id="Path_747_" class="st62" d="M323.8,89.6c-0.4,8.3-1.5,11.8-1.2,12.2c0.4,0.5,6.6,2.7,6.6-10.3
								c0-1.5-0.1-3.2-0.3-4.8C327.4,87.7,325.7,88.7,323.8,89.6L323.8,89.6z"/>
							<path id="Path_746_" class="st50" d="M271.7,91.5c-0.5,2.3-1.5,4.3-2.6,6.1c1.2,0.1,2.5,0.1,3.7,0.2c2.9,0.1,5.8,0,8.5,0
								c7.6-12,8.2-21.2,7.8-26.2c-0.3-1.6-0.5-2.8-0.5-3.5c-0.2-0.5-0.3-0.8-0.3-0.8c0.1,0,0.8-0.1,0.8-0.1h0.1h0.1
								c-31.2,1.9-40.5-5.5-40.4-9.2c0.1-3.3,4.9-4.7,6-5.1c-6.2,1.5-8.1,2.7-8.9,3.8c0,0.1-0.1,0.2-0.2,0.4c-0.5,1.1-1.9,5,3,8.8
								C254.8,70.3,275.9,74.3,271.7,91.5L271.7,91.5z"/>
							<path id="Path_745_" class="st62" d="M272.8,97.8c-1.3,0-2.6-0.1-3.7-0.2c-7.4,11.4-24.8,12.1-24.8,12.1
								c1.1,0.5,2.4,0.8,3.8,1.2c1.6,0.4,3.4,0.6,5,0.8c6.3,0.5,19.6-0.1,28.3-14l0,0C278.6,97.8,275.7,97.8,272.8,97.8L272.8,97.8z
								"/>
							<path id="Path_744_" class="st50" d="M267.7,132.7c-2.1,1.5-15,4.7-38.3-6.9s-29.9-23.5-29.9-23.5c1.7,3.5,4.4,7.8,8.2,13
								c9.1,12,31.9,24.2,49.8,28.1c14.5,3.1,34.3,5.7,57.6-1.5c22.2-10.2,26.8-21.6,26.8-21.6c-3.8,3.2-8.4,6.4-13.5,9.4
								c-14.6,8.7-42.4,13.5-43.8,8.8s4.5-9.5,11.8-12c7.3-2.6,21.1-10,21.5-10.5c0.4-0.4-15.5,6.7-32.6,7.7
								c-17.1,1-33-4.7-33.7-4.8c-0.6-0.2,1.5,2.6,10.1,5.9c8.7,3.4,15.2,3.6,14.8,4s-5.6,1.4-9.3,1.1c-1.2-0.1-3.9-0.2-7.4-0.6
								C266.9,130.6,269.8,131.2,267.7,132.7L267.7,132.7z"/>
							<path id="Path_743_" class="st1" d="M330.2,227.8l1.3,2l2.5,0.4c0.8-0.8,1.9-1.3,3.2-1.3c2.6,0,4.6,2,4.6,4.6
								c0,2.6-2,4.6-4.6,4.6c-0.1,0-0.3,0-0.4,0l-1.5,1.7l0.3,2c1.6,0.7,2.6,2.3,2.6,4.1c0,2.6-2,4.6-4.6,4.6c-2,0-3.7-1.3-4.4-3.1
								l-2.3-0.9l-2.2,1.1c-0.4,2.1-2.3,3.7-4.5,3.7c-2.6,0-4.6-2-4.6-4.6c0-1.6,0.9-3.1,2.2-3.9l0.1-2.2l-1.8-1.8
								c-0.2,0-0.4,0-0.5,0c-2.6,0-4.6-2-4.6-4.6c0-2.6,2-4.6,4.6-4.6c1.2,0,2.3,0.5,3.1,1.2l2.1-0.5l1.1-2.1
								c-0.4-0.6-0.5-1.4-0.5-2.1c0-2.6,2-4.6,4.6-4.6s4.6,2,4.6,4.6C330.5,226.7,330.4,227.4,330.2,227.8L330.2,227.8z"/>
							<path id="Path_742_" class="st63" d="M326.9,227.7l3,4.6l5.5,0.9c0.1-0.9,0.9-1.5,1.8-1.5c1,0,1.8,0.8,1.8,1.8
								s-0.8,1.8-1.8,1.8c-0.5,0-0.9-0.2-1.3-0.5l-3.5,4.3l0.8,5.2c0.2,0,0.3-0.1,0.5-0.1c1,0,1.8,0.8,1.8,1.8s-0.8,1.8-1.8,1.8
								s-1.8-0.8-1.8-1.8c0-0.2,0-0.4,0.1-0.5l-5-2L322,246c0.1,0.3,0.2,0.5,0.2,0.8c0,1-0.8,1.8-1.8,1.8c-1,0-1.8-0.8-1.8-1.8
								s0.8-1.8,1.8-1.8c0.1,0,0.2,0,0.3,0l0.3-5.4l-3.9-4c-0.4,0.3-0.7,0.5-1.2,0.5c-1,0-1.8-0.8-1.8-1.8s0.8-1.8,1.8-1.8
								c0.9,0,1.7,0.7,1.8,1.6l5.2-1.4l2.6-4.8c-0.6-0.3-1.1-0.9-1.1-1.6c0-1,0.8-1.8,1.8-1.8s1.8,0.8,1.8,1.8
								C327.8,226.8,327.4,227.5,326.9,227.7L326.9,227.7z"/>
							<polygon id="Path_741_" class="st64" points="317.3,234.7 326.7,236.8 322.7,232.7 317.5,234 							"/>
							<polygon id="Path_740_" class="st8" points="326.1,227.7 326.7,236.8 329.8,232.4 326.9,227.7 							"/>
							<polygon id="Path_739_" class="st5" points="335.5,234.1 326.7,236.8 332.3,239 335.8,234.7 							"/>
							<polygon id="Path_738_" class="st5" points="332.4,244.9 326.7,236.8 326.8,243.5 331.8,245.4 							"/>
							<polygon id="Path_737_" class="st64" points="321.1,245.3 326.7,236.8 320.8,239.6 320.5,245 							"/>
							<path id="Path_736_" class="st1" d="M269.5,270.2c1.6,0,3,1.4,3,3s-1.4,3-3,3c-1.6,0-3-1.4-3-3S267.8,270.2,269.5,270.2z"/>
							<path id="Path_735_" class="st1" d="M269.3,285.8c1.6,0,3,1.4,3,3c0,1.6-1.4,3-3,3c-1.6,0-3-1.4-3-3
								C266.2,287.1,267.6,285.8,269.3,285.8z"/>
							<path id="Path_734_" class="st1" d="M269,301.3c1.6,0,3,1.4,3,3s-1.4,3-3,3s-3-1.4-3-3S267.3,301.3,269,301.3z"/>
							<path id="Path_733_" class="st1" d="M293,270.2c-1.6,0-3,1.4-3,3s1.4,3,3,3s3-1.4,3-3S294.7,270.2,293,270.2z"/>
							<path id="Path_732_" class="st1" d="M293.3,285.8c-1.6,0-3,1.4-3,3c0,1.6,1.4,3,3,3s3-1.4,3-3
								C296.3,287.1,294.9,285.8,293.3,285.8z"/>
							<path id="Path_731_" class="st1" d="M293.5,301.3c-1.6,0-3,1.4-3,3s1.4,3,3,3c1.6,0,3-1.4,3-3S295.2,301.3,293.5,301.3z"/>
							<path id="Path_730_" class="st65" d="M332.5,253.4c0,0.5-9.2,15.8-16,21.2c-6.8,5.5-9.3,6.3-8.2,6.4c1.1,0.1,12,0.8,12.6,2.1
								c0.6,1.3-13.9,26.6-22.8,33.3c0.3,0.2,9.6-1.2,12.6-2c3-0.8,3.5-1,3.5-1s1.6-1.7,4.2-2.6c2.6-0.8,5.5,0.1,6.1-0.2
								s12.7-6.6,13.7-7.4c1-0.9,3.1-5.6,3.2-6.1s-1.6-2.5-1.6-2.5s-4.7,4-5.8,4.4s-3.7,0.8-3.7,0.8s4.7-3.3,5.1-3.5
								c0.4-0.2,4.5-3.9,4.9-5c0.5-1.1,1.1-3.5,1.1-3.8c-0.1-0.4-2.4-1.8-2.8-1.5c-0.5,0.3-17.2,14.4-17.4,14
								c-0.3-0.5,1.1-5.4,1.7-6.3s17-19.4,17.3-20.1c0.4-0.6,1-2.6,1-2.6s-3.4-2.8-4.7-2.7c-1.3,0.1-13.3,7.6-12.7,6.1
								c0.6-1.4,19.3-19.3,19.7-20.6c0.4-1.3-1.4-3.8-0.6-6.3c0.6-2.6,4.6-12,4.3-13.5c-0.3-1.5-4.7-10.9-5.8-17.2
								c-1.2-6.3-0.8-9.9-1.5-9.9s-1.6-0.2-2.5,0.1c-0.8,0.3-17.3,6.9-17.7,8.4c-0.4,1.2-12.9,14.2-17.7,19.2
								c1.6-1.1,20.9-14.2,24.7-16.5c3.9-2.3,5.4-1.8,5.8-1.1c0.5,0.6,3.2,10.5,3.2,10.5s-0.5,0.4-1.8,2.9c0.8-0.8,1.9-1.3,3.2-1.3
								c2.6,0,4.6,2,4.6,4.6c0,2.6-2,4.6-4.6,4.6c-0.1,0-0.3,0-0.4,0l-1.5,1.7l0.3,2c1.6,0.7,2.6,2.3,2.6,4.1c0,2.6-2,4.6-4.6,4.6
								c-2,0-3.7-1.3-4.4-3.1l-2.3-0.9l-2.2,1.1c-0.4,2.1-2.3,3.7-4.5,3.7c-2.6,0-4.6-2-4.6-4.6c0-1.6,0.9-3.1,2.2-3.9l0.1-2.2
								l-1.8-1.8c-0.2,0-0.4,0-0.5,0c-2.6,0-4.6-2-4.6-4.6c0-0.4,0-0.6,0.1-1c0,0-1.2,3.4,0.4,5.3c1.6,1.9,3.5,1.5,3.7,1.6
								c0.2,0.1,1.3,0.9,1.3,0.9l0.1,1.1c0,0-2.6,1.6-2.2,5.4c0.5,3.7,4.6,5.6,7.4,4.8c2.9-0.7,3.7-3.6,3.7-3.6l1.5-0.9l1.2,0.6
								c0,0,0.4,1.3,1.4,1.9c0.9,0.6,1.7,0.6,1.7,0.6S332.5,253,332.5,253.4L332.5,253.4z"/>
							<path id="Path_729_" class="st65" d="M234.7,287.5l-11.1-5.4c0,0,0.2,2.1-0.3,3.9c-0.5,1.7-2.2,4.7-2.1,5.8
								c0.1,1.1,6.8,7.5,7.3,8.5c0.5,1-5.2-3.6-5.6-3.6c-0.4,0-0.4-0.3-1,0.2c-0.6,0.5-1.6,4.1-0.9,4.8c0.5,0.7,1.2-0.5,3.7,0.8
								c2.4,1.2,2.9,3.4,3.7,3.9c0.7,0.5,2.8-0.4,4.7,0.5c1.8,1,2.5,2.6,4,3.3c1.6,0.7,2.8-1,5.2,0.1c1.9,0.8,3.5,1.9,4.4,2.8
								c-7.2-6.8-12.3-19.7-11.8-21.7c0.5-2,4.7,0,4.7,0L234.7,287.5L234.7,287.5z"/>
							<path id="Path_728_" class="st65" d="M218.9,248.7c0.9,2.2,7.4,9.2,12,14c0,0-4.4-10.3-5.1-12.7c-0.7-2.4-0.1-5.9,0.4-7.7
								c0.4-1.8,12.9,7.5,13.7,7.9c0.8,0.5-13.4-16.7-13.4-16.7c-8-11.5-12.6-21.1-12.6-21.1s-0.2,2.1,1.4,7.7
								c1.6,5.7,4.7,14.8,4.6,16.3c-0.2,1.5-1.1,4.1-2.5,5.7C215.9,243.7,217.5,245.3,218.9,248.7L218.9,248.7z"/>
							<path id="Path_727_" class="st65" d="M232.7,267c-3.4-1.6-8.9-4.8-9.5-5c-0.9-0.3-1.9,6.3-2.4,8.1
								c-0.4,1.7,12.9,9.9,15.4,11.8c1.4,1,3.7,4.9,5.6,8.4c0,0-1-3.7-2.6-7.6c-1.6-3.8-8.8-11-8.8-12.6c0.1-1.5,2.7-2.7,2.7-2.7
								S233,267.3,232.7,267L232.7,267z"/>
							<path id="Path_726_" class="st63" d="M312.5,171.9c-2,2.6-4.8,5-9.3,5.6c-5.4,0.6-11-5.1-10.5-10.3c0.1-1.5,0.6-3,1.4-4.3
								l-2-1l-0.2-0.2l-1.5-3.1c-0.4-0.1-0.7-0.1-1.1-0.2l1.7,3.9l1.3,0.8c0,0-1.4,2.4-1,5.7c0.4,3.3,2.2,5.2,2.2,5.2
								s-2.2-1.1-2.6-1.5s-1.6-2.5-1.6-2.5c0.5,2,0.9,3.8,1.1,4.1c0.4,0.7,18,8.8,18.4,9.1c0.4,0.2,2.7,3,3.8,4.6
								c0,0-0.7-2.7-0.9-3.1c-0.2-0.4-1.6-2.3-2.1-2.5c-0.5-0.2-5.8-2.9-5.8-2.9s2.5-0.4,5.5-1.8c2.9-1.5,3.6-2.9,3.6-2.9
								s2.6,1,3.1,1.3c0.4,0.2,2.5,2.2,3.7,3.6c0.1-0.3,0.2-0.5,0.3-0.8l-3.6-5.2L312.5,171.9L312.5,171.9z"/>
							<path id="Shape_36_" class="st51" d="M190.3,152.9c-3.1-1.1-34-10.8-37-11.6c-3-0.7-9.9,0.3-9.4,0.8c0.4,0.4,5.8,3.9,10,6.7
								c2.7,1.8,4.8,3.5,4.6,3.6c-0.7,0.5-57.2-26.2-60.7-27.4c-3.5-1.1-11-1.1-10-1.7c1-0.5,6-2.3,6.3-2.9c0.4-0.6,0-10.1,0-10.1
								s0.7-1.8,3-0.4c2.3,1.5,13,11.6,12.8,10.4c-0.3-1.2-11.2-15-11.8-15.3c-0.5-0.4-10.2,0.1-10.2,0.1s-1.8-0.2-2,1.6
								c-0.2,1.8-0.3,16.9-0.5,17.2c-0.3,0.4-2.1,0.9-4,2.5c-1.8,1.5-2.6,2.7-2.8,2.7c-0.1,0-5.8-5.5-7.4-14.3l0.1,0.3
								c0,0-1.4,2.5-1.3,7.7c0,1.9,0.4,3.6,0.8,5.1l-0.1-0.2c0.4,0.5,0.6,0.8,1,1.3c4.7,5.7,10.5,8.5,14.4,9.8
								c3.9,1.3,8.9,1.4,8.3,1c-0.5-0.4-4.4-1.5-7.8-3.5c-3.6-2-2.6-2.6-2.2-3.4c0.5-0.7,5.9-5,13,0.9c7,5.9,6.7,20.1-1.7,24.1
								s-14.3-2.6-15.8-7.9c-1.4-5.3,0.3-7.7-0.3-8.8c-0.5-1.2-3.6-2.3-4.4-2.1c-0.8,0.2-2.6,7,0.9,15.8
								c3.4,8.7,11.6,11.4,12.1,12.2c0.5,0.8,1.1,5.5,1.4,6s50.8,9.1,49.6,9.5c-1.2,0.4-4.2,2.2-4.2,2.2s0.1,10.8,0.5,12.3
								c0.4,1.5,2.1,6.6,8.4,9.3c6.3,2.7,18,4,16.7,2.7c-1.3-1.2-9.8-6-12-10.4c-2.2-4.4,1.1-18.6,0.5-19.6
								c-0.6-1.1-0.6-1.4-1.6-1.5c-1-0.2-50.8-13.6-50.8-13.6s-1-0.4,0.5-1.1c1.1-0.5,4.5-2.6,6.9-6.7c6.7,2.4,28.7,10.1,34.1,11.6
								c6.5,1.7,9.8,1.4,10.7,1.4c0.8,0-35.5-13.1-43.4-16c0.3-0.7,0.5-1.5,0.6-2.2c1.6-7.4-0.4-11.8-1.2-13.6
								c-0.8-1.8,1.6,0.4,3,2.2c1.4,1.8,1.6,3.4,1.8,3.5s48.4,18.8,48.4,18.8s1.8,2,0.1,5c-1.7,3-4.8,3.5-5,3.8s1,1.6,0.6,4.4
								c-0.4,2.7-1.3,4.2-0.9,4c0.4-0.3,2.8-1.8,3.4-3.8c0.5-2-0.4-2.9-0.1-3.2c0.4-0.3,4.6-1.5,5.5-6c0.9-4.6-1-8.2-1-8.2
								s14,4.1,15.5,4.6c1.6,0.5,2.9,2.9,3.1,3.6s0.3,0.8,0.4,0.9c0.1,0.1,9.4,2.9,9.4,2.9s2.8,1.5,3.1,5.8c0.3,4.3-2.6,6.9-3.9,5.8
								s-0.4-1.5-0.5-3.2c-0.1-1.7-1-2-1.3-2.1s-5.3-0.9-5.7-1.5c-0.4-0.6-1.1-3.6-1.5-3.5c-0.4,0.1,0.2,1.2-0.4,3.7
								c-0.5,2.6-1.7,3.8-1.6,4.1c0.1,0.3,9,3.4,8.3,3.4s-8.9-1.1-8.9-0.9c0,0.3,0.2,1.2-1.3,2.7c-1.5,1.6-5,2.2-4.6,2.3
								s14.1,3.6,14.1,3.6s8.8-0.8,10.6-10.6s-3.6-14.8-3.6-14.8l-24-8.1c0,0-2.2-1.5-1.9-3.6s4.7-2.2,5.9-2.1
								c1.1,0.1,24.6,7.5,24.6,7.5C195.5,156.3,192.9,153.8,190.3,152.9L190.3,152.9z M70.2,127.1c0.1,0.1,0.1,0.2,0.2,0.3
								L70.2,127.1z"/>
							<path id="Shape_35_" class="st8" d="M97.7,125.1c3,1,45.5,21.1,57.6,26.2c0,0,6.5,4.2,6.8,4.7S113,137.8,113,137.8
								s1.6,1.7,3.7,8.2c-4.2-1.6-6.9-2.7-7-2.7c-0.3-0.1-0.5-1.7-1.8-3.5c-1.4-1.8-3.8-4-3-2.2c0.8,1.8,2.8,6.1,1.2,13.6
								c-0.2,0.7-0.4,1.5-0.6,2.2c0,0-0.9,2.3-1.5,3.1l0,0c-2.4,4-5.8,6.1-6.9,6.7c-0.4,0.2-0.5,0.3-0.6,0.5c0,0-5.9,3.2-12.6,0.9
								c-2.6-1.8-5.9-4.7-7.8-9.6c-3.4-8.7-1.7-15.6-0.9-15.8c0.8-0.2,3.9,0.9,4.4,2.1c0.5,1.2-1.1,3.6,0.3,8.8
								c1.4,5.3,7.4,12,15.8,7.9c8.4-4,8.8-18.1,1.7-24.1c-6.9-5.9-12.5-1.7-13-0.9c-0.5,0.7-1.4,1.4,2.2,3.4s7.3,3.1,7.8,3.5
								c0.5,0.4-4.4,0.4-8.3-1c-3.9-1.3-9.6-4.1-14.4-9.8c-0.4-0.4-0.6-0.8-1-1.3l0.1,0.2c-0.5-1.5-0.8-3.2-0.8-5.1
								c-0.1-5.1,1.3-7.7,1.3-7.7c0-0.1,0-0.2-0.1-0.3c1.6,8.9,7.3,14.3,7.4,14.3c0.1,0,0.9-1.2,2.8-2.7c1.8-1.5,3.7-2.1,4-2.5
								c0.3-0.4,0.4-15.5,0.5-17.2c0.2-1.8,2-1.6,2-1.6s9.6-0.5,10.2-0.1c0.5,0.4,11.5,14.1,11.8,15.3c0.3,1.2-10.5-8.9-12.8-10.4
								c-2.3-1.5-3,0.4-3,0.4s0.4,9.5,0,10.1s-5.4,2.4-6.3,2.9C86.7,123.9,94.2,123.9,97.7,125.1L97.7,125.1z M70.4,127.4
								c-0.1-0.1-0.1-0.2-0.2-0.3C70.2,127.2,70.3,127.3,70.4,127.4z"/>
							<path id="Path_725_" class="st47" d="M81.8,94.9c-1.4,10.1-11.8,7.3-11,17.7c0.1,0.9,0.2,1.8,0.4,2.6c0,0-1.4,2.5-1.3,7.7
								c0,1.9,0.4,3.6,0.8,5.1c-4.3-5.7-7.2-13.8-4.8-19.2c2.6-5.8,11.3-8.8,12.2-14.7c0.9-5.8-4.4-9.6-5.4-10.4
								C71.8,82.8,83.1,84.8,81.8,94.9L81.8,94.9z"/>
							<path id="Path_724_" class="st5" d="M137.1,191c0-2.1,1.3-2,1.3-2l9.6,0.6c-0.4,3.6-0.4,7.2,0.5,9.1
								c2.2,4.4,10.7,9.2,12,10.4c1.3,1.2-10.4,0-16.7-2.7c-3.1-4-6.3-8-6.4-9.1C137.3,196,137.1,193.1,137.1,191L137.1,191z"/>
							<path id="Path_723_" class="st5" d="M148.7,183.5l-9.7-1.1c1.2-0.4-49.4-8.9-49.6-9.5c-0.3-0.5-0.8-5.2-1.4-6l61,13.2
								C149,181,148.9,182.2,148.7,183.5L148.7,183.5z"/>
							<path id="Path_722_" class="st46" d="M143.6,149.3l1.8,7.7c-4.5-1.7-9.6-3.7-14.5-5.7c-0.5-2.2-1.2-5.7-1.6-7.5
								C133.9,145.6,138.8,147.5,143.6,149.3L143.6,149.3z"/>
							<path id="Path_721_" class="st8" d="M196.8,158.7c0,0-23.5-7.4-24.6-7.5c0,0-15.2-6.4-19.4-6.3c-1.7,0.1-2.7,0.4-3.4,0.6
								c-2.7-1.8-5-3.4-5.3-3.6c-0.5-0.5,6.4-1.5,9.4-0.8c3,0.7,33.9,10.6,37,11.6C192.9,153.8,195.5,156.2,196.8,158.7L196.8,158.7
								z"/>
							<path id="Path_720_" class="st46" d="M176.8,181.8c0-0.3,8.2,0.9,8.9,0.9l0,0l7.8,2.4c-3.2,4.9-8.6,5.4-8.6,5.4
								s-13.6-3.5-14.1-3.6s3.1-0.7,4.6-2.3C176.9,182.9,176.8,182,176.8,181.8L176.8,181.8z"/>
							<path id="Path_719_" class="st52" d="M171.2,193.1c0,0-2.7,1.2-6,0.8c-3.3-0.4-9.1-1.7-10.6-1.8c-1.5-0.2-2.4,0.6-2.4,0.6
								s0,3.4,1.4,5.5c1.5,2.1,9.9,6.9,10.3,6.9c0.5,0,9.1,1,11-4.8C176.7,194.4,171.2,193.1,171.2,193.1L171.2,193.1z"/>
							<path id="Path_718_" class="st53" d="M129.7,189.4c0,0-0.1,6.2,0.6,8.7c0.7,2.6,2.8,3.9,2.5,4.1c-0.4,0.2-1.6-0.3-1.9-0.4
								c-0.4-0.2-3.8-1.7-4.7-4.7c-0.9-3-0.7-5.3-0.7-5.3s0-1.3,1.3-2C128.1,189,129.7,189.4,129.7,189.4L129.7,189.4z"/>
							<path id="Path_717_" class="st54" d="M167.8,212.5c0,0-0.8,2.3-2.8,2.3c-2,0-12,0.3-18-1.7c-5.9-1.9-9.2-5.3-9.8-4.7
								c-0.5,0.6,2,9.1,8.4,12.6c6.4,3.5,19.3,2.5,20.6,1.8s4.2-2.5,4.1-6.3C170.2,212.5,167.8,212.5,167.8,212.5L167.8,212.5z"/>
							<path id="Path_716_" class="st54" d="M170.3,227.3c0,0-1.1,2-3.9,2.5c-2.8,0.4-14.8,0.7-19.6-1s-5.9-3.2-5.9-3.2
								s1.8,9.8,6.8,12.1c5,2.3,18.9,1.2,20.8,0.4C170.3,237.3,173.1,231.9,170.3,227.3L170.3,227.3z"/>
							<path id="Path_715_" class="st54" d="M171.2,243.4c0,0-2.7,2.9-5.6,3.1c-2.8,0.2-13.7,0.8-16.5-0.2c-2.8-1-3.1-1.6-3.1-1.6
								s0.4,5.6,4.2,8.9c3.8,3.4,5.8,3.2,9.3,3c3.7-0.2,8.9,0.4,11-3.4C172.9,249.5,172.8,246.1,171.2,243.4L171.2,243.4z"/>
							<path id="Path_714_" class="st54" d="M179.9,206.7c0,0-0.9,7.1-0.8,14.9c0.1,7.7,1,13.6,1.8,13.2c0.9-0.4,9.9-1.9,11.1-10.2
								c1.3-8.3,0.4-16.9-2.6-19.2C186.4,202.9,180,202.8,179.9,206.7L179.9,206.7z"/>
							<path id="Path_713_" class="st8" d="M159.2,246.8c2.8-0.1,5.3-0.3,6.5-0.3c2.8-0.1,5.6-3.1,5.6-3.1c1.6,2.7,1.6,6.1-0.5,9.8
								c-1.6,2.8-5,3.2-8,3.3L159.2,246.8L159.2,246.8z"/>
							<path id="Path_712_" class="st8" d="M168.5,238c-0.8,0.4-4.2,0.8-8.1,0.9l-2.9-8.9c3.9,0.1,7.6-0.1,9-0.3
								c2.8-0.4,3.9-2.5,3.9-2.5C173.1,231.9,170.3,237.2,168.5,238L168.5,238z"/>
							<path id="Path_711_" class="st8" d="M166.2,222.7c-0.7,0.4-4.6,0.8-8.9,0.6l-3.6-9c4.9,0.5,9.9,0.4,11.2,0.4
								c2,0,2.8-2.3,2.8-2.3s2.5,0,2.6,3.9S167.6,222,166.2,222.7L166.2,222.7z"/>
							<path id="Path_710_" class="st8" d="M184.8,233.4c-0.4-8.7-0.8-23.5-0.5-25.4c0.4-2.6,2.6-3.9,2.6-3.9
								c0.9,0.3,1.8,0.7,2.5,1.3c3,2.4,4,10.9,2.6,19.2C191.3,229.5,187.7,232,184.8,233.4L184.8,233.4z"/>
							<path id="Path_709_" class="st8" d="M174.9,200.5c-1,0-2.2-0.3-3.3-1c-2.8-1.8-2.3-2.6-3.6-2.9c-1.3-0.4-10-1-11.1-2
								s-0.2-2.2,1.1-1.9l0,0c2.3,0.5,5.2,1,7.2,1.3c3.3,0.4,6-0.8,6-0.8s5.5,1.3,3.7,7.1C174.9,200.3,174.9,200.4,174.9,200.5
								L174.9,200.5z"/>
							<path id="Path_708_" class="st46" d="M169.1,163.2c-1.1,0-2.1,0.4-3,0.9l0,0l0,0c-0.2,0.2-0.2,0.5,0.1,0.8
								c0.3,0.4,1,0.1,1.1,0.1l0,0l0,0l0,0l0,0l0,0l0,0l0,0l0,0c0.4-0.1,0.7-0.2,1.1-0.2c1.9,0,3.4,1.5,3.4,3.4
								c0,1.8-1.6,3.4-3.4,3.4c-0.9,0-1.8-0.4-2.4-1c-0.6-0.5-1-0.1-1.3,0.2c-0.3,0.3,0,0.8,0,0.8c1,1.4,2.6,2.3,4.4,2.3
								c2.9,0,5.3-2.4,5.3-5.3C174.4,165.6,172,163.2,169.1,163.2L169.1,163.2z"/>
							<path id="Path_707_" class="st46" d="M165.9,176.1c-0.9-0.1-1.8,0-2.6,0.4l0,0l0,0c-0.2,0.1-0.3,0.4,0,0.7
								c0.2,0.3,0.8,0.2,0.9,0.2l0,0l0,0l0,0l0,0l0,0l0,0l0,0l0,0c0.3-0.1,0.6-0.1,0.9,0c1.6,0.3,2.6,1.6,2.4,3.2
								c-0.3,1.5-1.6,2.6-3.2,2.4c-0.7-0.1-1.5-0.5-1.8-1.1c-0.5-0.5-0.8-0.2-1,0c-0.3,0.2-0.1,0.6-0.1,0.6c0.6,1.3,1.8,2.2,3.3,2.4
								c2.5,0.4,4.7-1.3,5-3.7C170,178.8,168.4,176.5,165.9,176.1L165.9,176.1z"/>
							<path id="Path_706_" class="st28" d="M65.5,82c0,0,0-0.8-0.5-1.8c-0.5-1-1.6-1.1-2-1.1c-0.5,0-12.3,1-12.8,0.7
								c-0.4-0.4-0.9-2-2.9-2.6c-1.9-0.5-4.5,0-4.7,0c-0.2,0.1-0.5,0.3-0.4,0.3c0.2,0,3.5,0,4.8,2.3c1.5,2.2,2.5,5.8,2.5,5.8
								s2.1,1,2.5,0.8C52.5,86.3,65.5,82,65.5,82L65.5,82z"/>
							<path id="Path_705_" class="st8" d="M45.4,82.1c0,0-8.3,5.7-8.8,5.5c-0.5-0.2-5.5-1.5-5.5-1.5l8-7c0,0,2.4-0.3,3.8,0.5
								C44.6,80.3,45.4,82.1,45.4,82.1L45.4,82.1z"/>
							<path id="Path_704_" class="st51" d="M47.1,87.4c0,0-8.6,3.3-9.1,2.9c-0.5-0.4-11.5-3.1-11.5-3.1s4.9-4.1,4.6-4
								c-0.4,0.1-12.8,4.2-12.9,4.3c-0.1,0.1-0.8,11.8-0.5,11.8c0,0,0.5,0.2,1.5,0.5v-6.3l2.2,0.6v6.4l2.6,0.8v-6.4l2.2,0.6v6.5
								l2.6,0.8v-6.6l2.2,0.6v6.7c0.9,0.3,1.7,0.5,2.6,0.8v-6.7l2.2,0.6v6.7c1.6,0.5,2.7,0.8,2.7,0.8c0.2-0.3,0.5-10.7,0.3-10.9
								c-0.3-0.2-16.1-5.7-16.3-6.4c-0.4-0.6,16.4,4,17,3.8c0.5-0.2,8.6-3.3,8.6-3.3s-0.7,11.7-0.5,11.4c0.3-0.3,1.4-0.8,1.4-2.6
								c0-1.8,0.7-9.6,0.5-9.8C48.5,87.8,47.1,87.4,47.1,87.4L47.1,87.4z"/>
							<path id="Path_703_" class="st47" d="M48.3,81.9l16.5-2.2c0.1,0.1,0.2,0.3,0.3,0.5c0.5,1,0.5,1.8,0.5,1.8S52.5,86.3,52,86.4
								c-0.4,0.2-2.5-0.8-2.5-0.8S49.1,83.7,48.3,81.9L48.3,81.9z"/>
							<path id="Path_702_" class="st47" d="M302.9,162c3.1,0,5.7,2.6,5.7,5.7c0,3.1-2.6,5.7-5.7,5.7c-3.1,0-5.7-2.6-5.7-5.7
								C297.3,164.6,299.8,162,302.9,162z"/>
							<path id="Path_701_" class="st28" d="M303.2,163.7c2.4,0,4.3,1.9,4.3,4.3c0,2.4-1.9,4.3-4.3,4.3s-4.3-1.9-4.3-4.3
								C298.9,165.6,300.8,163.7,303.2,163.7z"/>
							<path id="Path_700_" class="st66" d="M303.2,164.7c1.7,0,3.2,1.5,3.2,3.2s-1.5,3.2-3.2,3.2s-3.2-1.5-3.2-3.2
								S301.4,164.7,303.2,164.7z"/>
							<path id="Path_699_" class="st67" d="M303.2,165c1.6,0,2.8,1.3,2.8,2.8c0,1.5-1.3,2.8-2.8,2.8c-1.6,0-2.8-1.3-2.8-2.8
								C300.3,166.3,301.6,165,303.2,165z"/>
							<path id="Path_698_" class="st68" d="M303.2,165.3c1.5,0,2.6,1.2,2.6,2.6c0,1.5-1.2,2.6-2.6,2.6c-1.5,0-2.6-1.2-2.6-2.6
								C300.6,166.5,301.8,165.3,303.2,165.3z"/>
							<path id="Path_697_" class="st8" d="M303.2,165.6c1.3,0,2.4,1.1,2.4,2.4s-1.1,2.4-2.4,2.4c-1.3,0-2.4-1.1-2.4-2.4
								C300.8,166.6,301.8,165.6,303.2,165.6z"/>
							<path id="Path_696_" class="st28" d="M309.5,165.2c0.2,0.4,0.3,0.8,0.4,1.3c0.6,3.8-1.9,7.5-5.8,8.1s-7.5-1.9-8.1-5.7v-0.1
								c1.2,3.1,4.4,5,7.8,4.5C307.5,172.6,310.1,169,309.5,165.2L309.5,165.2z"/>
							<path id="Path_695_" class="st8" d="M18.2,87.5c-0.1,0.1-0.8,11.8-0.5,11.8c0,0,0.5,0.2,1.5,0.5v-6.3l2.2,0.6v6.4l2.6,0.8
								v-6.4l2.2,0.6v6.5l2.6,0.8v-6.6l2.2,0.6v6.7c0.9,0.3,1.7,0.5,2.6,0.8v-6.7l2.2,0.6v6.7c1.6,0.5,2.7,0.8,2.7,0.8
								c0.2-0.3,0.5-10.7,0.3-10.9c-0.3-0.2-16.1-5.7-16.3-6.4L18.2,87.5L18.2,87.5z"/>
							<path id="Path_694_" class="st8" d="M544.4,87.5c0.1,0.1,0.8,11.8,0.5,11.8c0,0-0.5,0.2-1.5,0.5v-6.3l-2.2,0.6v6.4l-2.6,0.8
								v-6.4l-2.2,0.6v6.5l-2.6,0.8v-6.6l-2.2,0.6v6.7c-0.9,0.3-1.7,0.5-2.6,0.8v-6.7l-2.2,0.6v6.7c-1.6,0.5-2.7,0.8-2.7,0.8
								c-0.2-0.3-0.5-10.7-0.3-10.9c0.3-0.2,16.1-5.7,16.3-6.4L544.4,87.5L544.4,87.5z"/>
							<path id="Path_693_" class="st56" d="M363.2,302.7c0.5,0,2.4,9.3,2.7,10.8c0.3,1.5-6.5,3.3-6.5,3.3c1,0,2.2-0.1,3.4-0.3
								c5.3-0.6,6.3-2.8,6-4.2c-0.2-0.9-1.5-7-2.6-11.8c-0.6-2.7-1.2-4.9-1.5-5.4c-0.7-1.2-9.6-1-8.4-0.5c1.2,0.4,5.3,0.4,6.2,1
								s1.1,4.1,0.9,4.7c-0.2,0.5-2.6,1.4-5.3,1.7C358.3,302.1,362.6,302.6,363.2,302.7L363.2,302.7z"/>
							<path id="Path_692_" class="st28" d="M488,123.6c-2.4,4.6-9.4,10.8-9.4,10.8c-0.3,0.5-1,1.1-2.5,1.9c-3.6,2-7.3,3.1-7.8,3.5
								c-0.5,0.4,4.4,0.4,8.3-1c3.9-1.3,9.6-4.1,14.4-9.8c0.3-0.4,0.5-0.7,0.9-1.1c0.5-1.5,0.8-3.2,0.8-5.1c0.1-5.1-1.3-7.7-1.3-7.7
								C490.7,118.6,489.4,121.5,488,123.6L488,123.6z"/>
							<path id="Path_691_" class="st28" d="M74.6,123.6c2.4,4.6,9.4,10.8,9.4,10.8c0.3,0.5,1,1.1,2.5,1.9c3.6,2,7.3,3.1,7.8,3.5
								c0.5,0.4-4.4,0.4-8.3-1c-3.9-1.3-9.6-4.1-14.4-9.8c-0.3-0.4-0.5-0.7-0.9-1.1c-0.5-1.5-0.8-3.2-0.8-5.1
								c-0.1-5.1,1.3-7.7,1.3-7.7C71.8,118.6,73.1,121.5,74.6,123.6L74.6,123.6z"/>
							<path id="Path_690_" class="st28" d="M241.1,223.4l-14.7-12.8c1.6,2.8,4,7,6.9,11.5l23,19.1c-2.6-2.7-5.6-5.7-8.2-8.8
								C244.1,227.7,242.1,224.9,241.1,223.4L241.1,223.4z"/>
							<path id="Path_689_" class="st28" d="M289.2,217.8c-7,5.2-8.4,5.9-8.4,5.9s6.1,1.3,8.1,0.5c2-0.7,6.3-3.2,7.2-4.5
								c0.8-1.3,3.7-7.8,3.7-7.8L289.2,217.8L289.2,217.8z"/>
							<path id="Path_688_" class="st47" d="M239.5,199.5l0.3,2.7l4.4,12.4c0,0-20.3-11.4-28.5-22.7l0,0c0,0-6.1-7.1-8.6-16
								c-2.5-8.8-1.2-10.9-1.2-10.9s1.8-0.9,7.1-1.1c5.3-0.1,7.3,1,7.3,1s-5.7,1.7-7.1,2.5c-1.4,0.6-1.4,0.6-1.4,0.6
								s-0.7,3.5,3.1,12.4c1.3,2.2,2.8,4.5,4.7,6.8c6.3,7.5,12.2,11.6,13.1,12l0,0c-0.1-0.1-0.2-0.2-0.3-0.5
								c-0.9-1.4-3.7-5.7-5.2-10.4c-1.8-5.7-1.9-9.3-1.9-9.3s4.2,7.1,6.3,9.6c0.4,0.4,0.6,1,0.8,1.8
								C232.5,190.5,239.5,199.5,239.5,199.5z"/>
							<path id="Path_687_" class="st28" d="M270.8,224.2c-2.2-1.5-9.8-6.5-17.1-14c0,0-7.8-5.7-17.3-17.1
								c-9.5-11.5-11.1-13.9-11.1-13.9s8.8,17.6,22,32c13.2,14.4,19.9,17.8,21.6,18.3c1.2,0.4,8-0.5,12-1.2
								C280.9,228.4,272.5,225.4,270.8,224.2L270.8,224.2z"/>
							<path id="Path_686_" class="st65" d="M138.5,258.8c2.6,2.9,7.2,4.1,9.8,6.9l-8.7-1.5c5.8,8.9,22.5,15.3,32.3,14.6
								c2.6-0.2,19.7-8.9,22.3-12.4c1.9-2.6,3.6-8.5,5.1-11.3c0.7-1.9,1.5-4.2,1.7-6.4c0.5-4.6-0.4-6.1,0.1-5.7
								c0.5,0.4,3.3,2.9,2.6,9.7c0.5-0.3,0.9-0.6,1.4-1.2l0,0c0.2-0.2,7-7.4,5.8-17.8c-1.2-10.6-1.6-10.2-1.6-10.2s-0.2,6.4-2.1,9.8
								c-2,3.5-7.3,4.4-10,4.7c1.8,8.6-8.1,23.4-23.6,26.2c-1.5,0.3-2.1,2.7-3.7,2.7c-12.1-0.2-24.4-4.3-24.4-4.3L138.5,258.8
								L138.5,258.8z"/>
							<path id="Path_685_" class="st48" d="M194.7,249.2c-3.8,11.1-16.6,19.2-31.9,19.2c-18.3,0-33-11.7-33-26.2
								c0-4.6,1.6-8.9,4.2-12.7c0.4,1.3,0.9,2.7,1.7,4.3l0,0c-0.4,1.5-0.5,3-0.5,4.6c0,13.6,13.2,24.6,29.5,24.6
								c16.1,0,29-10.7,29.5-24l0,0C194.1,239.1,196.6,242.4,194.7,249.2L194.7,249.2z"/>
							<path id="Path_684_" class="st65" d="M426.4,258.8c-2.6,2.9-7.2,4.1-9.8,6.9l8.7-1.5c-5.8,8.9-22.5,15.3-32.3,14.6
								c-2.6-0.2-19.7-8.9-22.3-12.4c-1.9-2.6-3.6-8.5-5.1-11.3c-0.7-1.9-1.5-4.2-1.7-6.4c-0.5-4.6,0.4-6.1-0.1-5.7
								c-0.5,0.4-3.3,2.9-2.6,9.7c-0.5-0.3-0.9-0.6-1.4-1.2l0,0c-0.2-0.2-7-7.4-5.8-17.8c1.2-10.6,1.6-10.2,1.6-10.2
								s0.2,6.4,2.1,9.8c2,3.5,7.3,4.4,10,4.7c-1.8,8.6,8.1,23.4,23.6,26.2c1.5,0.3,2.1,2.7,3.7,2.7c12.1-0.2,24.4-4.3,24.4-4.3
								L426.4,258.8L426.4,258.8z"/>
							<path id="Path_683_" class="st48" d="M370.2,249.2c3.8,11.1,16.6,19.2,31.9,19.2c18.3,0,33-11.7,33-26.2
								c0-4.6-1.6-8.9-4.2-12.7c-0.4,1.3-0.9,2.7-1.7,4.3l0,0c0.4,1.5,0.5,3,0.5,4.6c0,13.6-13.2,24.6-29.5,24.6
								c-16.1,0-29-10.7-29.5-24l0,0C370.8,239.1,368.3,242.4,370.2,249.2L370.2,249.2z"/>
							<g id="Group_1_" transform="translate(177.762712, 198.079710)">
								<path id="Path_682_" class="st8" d="M98.6,128.7c0.3,0,0.5,0.2,0.5,0.5c0,0.3-0.2,0.5-0.5,0.5s-0.5-0.2-0.5-0.5
									C98.1,128.9,98.3,128.7,98.6,128.7z"/>
								<path id="Path_681_" class="st8" d="M107.7,128.7c-0.3,0-0.5,0.2-0.5,0.5c0,0.3,0.2,0.5,0.5,0.5c0.3,0,0.5-0.2,0.5-0.5
									C108.1,128.9,107.9,128.7,107.7,128.7z"/>
								<g id="Shape_34_">
									<path class="st47" d="M93.2,134.6v6.7h-2.7v-4.5h-4.6V134H91c-0.5-0.5-0.6-1-0.6-1.6c0-0.7,0.4-1.5,0.9-1.9v-2.2h-4.6v-2.7
										h4.6v-3h4.4c0.5-0.6,1.2-1.1,2-1.1c1.3,0,2.4,1.1,2.4,2.4s-1.1,2.4-2.4,2.4c-0.7,0-1.4-0.4-1.8-0.8h-1.7v5
										c0.6,0.5,1,1.2,1,1.9C95.1,133.4,94.3,134.3,93.2,134.6L93.2,134.6z M112.9,134.6c-1-0.3-1.8-1.2-1.8-2.3
										c0-0.8,0.4-1.5,1-1.9v-5.1h-1.7c-0.5,0.5-1.1,0.8-1.8,0.8c-1.3,0-2.4-1.1-2.4-2.4s1.1-2.4,2.4-2.4c0.8,0,1.6,0.5,2,1.1h4.4
										v2.9h4.6v2.7H115v2.2c0.5,0.5,0.9,1.1,0.9,1.9c0,0.6-0.3,1.2-0.6,1.6h5.1v2.7h-4.6v4.5H113L112.9,134.6L112.9,134.6z
										 M106.3,131.1c-0.5-0.5-0.9-1.1-0.9-1.9c0-1.3,1.1-2.4,2.4-2.4c1.3,0,2.4,1.1,2.4,2.4c0,0.8-0.4,1.5-1,1.9v3.6h3.3v7.2
										h-2.7v-4.5h-3.3C106.3,137.5,106.3,131.1,106.3,131.1z M100,131.1v6.4h-3.3v4.5H94v-7.2h3.3v-3.6c-0.6-0.5-1-1.2-1-1.9
										c0-1.3,1.1-2.4,2.4-2.4c1.3,0,2.4,1.1,2.4,2.4C100.9,129.9,100.5,130.6,100,131.1L100,131.1z"/>
									<path class="st47" d="M93.1,134.5v6.6h-2.5v-4.5h-4.6v-2.5h5.3c-0.5-0.4-0.9-1.1-0.9-1.8c0-0.7,0.4-1.4,0.9-1.8v-2.4h-4.6
										v-2.5h4.6v-2.9h4.3c0.4-0.6,1.1-1.1,1.9-1.1c1.2,0,2.2,1,2.2,2.2c0,1.2-1,2.2-2.2,2.2c-0.7,0-1.4-0.4-1.7-0.8h-2v5.3
										c0.6,0.4,1,1.1,1,1.8C94.9,133.4,94.1,134.2,93.1,134.5L93.1,134.5z M113.1,134.5c-1-0.2-1.8-1.1-1.8-2.2
										c0-0.7,0.4-1.5,1-1.8v-5.3h-2c-0.4,0.5-1.1,0.8-1.7,0.8c-1.2,0-2.2-1-2.2-2.2c0-1.2,1-2.2,2.2-2.2c0.8,0,1.6,0.5,1.9,1.1
										h4.3v2.9h4.6v2.5h-4.6v2.4c0.5,0.4,0.9,1.1,0.9,1.8c0,0.7-0.4,1.4-0.9,1.8h5.3v2.5h-4.6v4.5H113L113.1,134.5L113.1,134.5z
										 M106.4,131c-0.5-0.4-0.9-1.1-0.9-1.8c0-1.2,1-2.2,2.2-2.2c1.2,0,2.2,1,2.2,2.2c0,0.7-0.4,1.5-1,1.8v3.8h3.3v6.8h-2.5v-4.5
										h-3.3C106.4,137.3,106.4,131,106.4,131z M99.8,131v6.3h-3.3v4.5h-2.5v-6.8h3.3v-3.8c-0.6-0.4-1-1.1-1-1.8
										c0-1.2,1-2.2,2.2-2.2c1.2,0,2.2,1,2.2,2.2C100.8,129.9,100.4,130.5,99.8,131z"/>
									<path class="st28" d="M93,134.3v6.6h-2.2v-4.5h-4.6v-2.2H92c-0.8-0.3-1.4-1-1.4-1.9c0-0.7,0.4-1.4,0.9-1.7v-2.6h-4.6v-2.2
										h4.6v-2.9h4.2c0.4-0.6,1-1.1,1.8-1.1c1.1,0,2,0.9,2,2s-0.9,2-2,2c-0.6,0-1.3-0.4-1.6-0.8h-2.1v5.5c0.6,0.4,1,1,1,1.7
										C94.8,133.3,94,134.2,93,134.3L93,134.3z M113.2,134.3c-1-0.1-1.8-1-1.8-2c0-0.7,0.4-1.4,1-1.7v-5.5h-2.2
										c-0.4,0.5-1,0.8-1.6,0.8c-1.1,0-2-0.9-2-2c0-1.1,0.9-2,2-2c0.7,0,1.5,0.5,1.8,1.1h4.2v2.9h4.6v2.2h-4.6v2.6
										c0.5,0.4,0.9,1,0.9,1.7c0,0.9-0.5,1.6-1.4,1.9h5.8v2.2h-4.6v4.5h-2.2L113.2,134.3L113.2,134.3z M106.6,130.9
										c-0.5-0.4-0.9-1-0.9-1.7c0-1.1,0.9-2,2-2c1.1,0,2,0.9,2,2c0,0.7-0.4,1.4-1,1.7v4.1h3.3v6.6h-2.2v-4.5h-3.2V130.9z
										 M99.7,130.9v6.3h-3.3v4.5h-2.2v-6.6h3.3V131c-0.6-0.4-1-1-1-1.7c0-1.1,0.9-2,2-2c1.1,0,2,0.9,2,2
										C100.6,129.9,100.3,130.5,99.7,130.9z"/>
									<path class="st67" d="M115.2,136.2v4.5h-1.8v-6.4h6.4v1.8C119.8,136.2,115.2,136.2,115.2,136.2z M106.6,130.8
										c-0.5-0.4-0.9-1-0.9-1.6c0-1.1,0.8-1.9,1.9-1.9c1.1,0,1.9,0.8,1.9,1.9c0,0.7-0.4,1.4-1,1.6v4.3h3.3v6.3H110v-4.5h-3.3
										L106.6,130.8L106.6,130.8z M112.6,130.5v-5.7h-2.4c-0.4,0.5-0.9,0.8-1.6,0.8c-1.1,0-1.9-0.8-1.9-1.9s0.8-1.9,1.9-1.9
										c0.7,0,1.4,0.5,1.7,1.1h4.2v2.9h4.6v1.8h-4.6v2.8c0.5,0.4,0.9,1,0.9,1.6c0,1.1-0.8,1.9-1.9,1.9c-1.1,0-1.9-0.8-1.9-1.9
										C111.6,131.5,112,130.9,112.6,130.5L112.6,130.5z M99.5,130.8v6.2h-3.3v4.5h-1.8v-6.3h3.3v-4.3c-0.6-0.4-1-1-1-1.6
										c0-1.1,0.8-1.9,1.9-1.9c1.1,0,1.9,0.8,1.9,1.9C100.4,129.8,100.1,130.5,99.5,130.8L99.5,130.8z M93.6,130.5
										c0.6,0.4,1,1,1,1.6c0,1.1-0.8,1.9-1.9,1.9c-1.1,0-1.9-0.8-1.9-1.9c0-0.6,0.4-1.3,0.9-1.6v-2.8h-4.6v-1.8h4.6V123h4.2
										c0.3-0.6,1-1.1,1.7-1.1c1.1,0,1.9,0.8,1.9,1.9c0,1.1-0.8,1.9-1.9,1.9c-0.6,0-1.3-0.4-1.6-0.8h-2.5V130.5L93.6,130.5z
										 M90.9,136.2h-4.6v-1.8h6.4v6.4h-1.8V136.2z"/>
									<path class="st68" d="M115.1,136v4.5h-1.6v-6h6.1v1.5H115.1z M106.8,130.7c-0.5-0.3-0.9-0.9-0.9-1.5c0-1,0.8-1.7,1.7-1.7
										c1,0,1.7,0.8,1.7,1.7c0,0.6-0.4,1.3-1,1.5v4.6h3.3v6h-1.6v-4.5h-3.3V130.7L106.8,130.7z M112.8,130.6v-6h-2.6
										c-0.3,0.5-0.9,0.8-1.5,0.8c-1,0-1.7-0.8-1.7-1.7s0.8-1.7,1.7-1.7c0.7,0,1.4,0.5,1.6,1.1h4.1v2.9h4.6v1.5h-4.6v3.1
										c0.5,0.3,0.9,0.9,0.9,1.5c0,1-0.8,1.7-1.7,1.7s-1.7-0.8-1.7-1.7C111.8,131.5,112.1,131,112.8,130.6z M99.3,130.7v6.1h-3.3
										v4.5h-1.6v-6h3.3v-4.6c-0.6-0.3-1-0.9-1-1.5c0-1,0.8-1.7,1.7-1.7c1,0,1.7,0.8,1.7,1.7C100.3,129.8,100,130.5,99.3,130.7z
										 M93.4,130.6c0.6,0.3,1,0.9,1,1.5c0,1-0.8,1.7-1.7,1.7c-1,0-1.7-0.8-1.7-1.7c0-0.6,0.4-1.3,0.9-1.5v-3.1h-4.6V126h4.6v-2.9
										H96c0.3-0.6,0.9-1.1,1.6-1.1c1,0,1.7,0.8,1.7,1.7c0,1-0.8,1.7-1.7,1.7c-0.6,0-1.2-0.4-1.5-0.8h-2.6
										C93.4,124.7,93.4,130.6,93.4,130.6z M91.1,136h-4.6v-1.5h6.1v6h-1.6C91.1,140.6,91.1,136,91.1,136z"/>
								</g>
								<path id="Shape_33_" class="st8" d="M113.7,134.6v5.7h1.3v-4.5h4.6v-1.3h-2.3H115H113.7L113.7,134.6z M107,130.6v4.8v1.3
									h1.3h2v4.5h1.3v-4.5v-0.9v-0.4h-3.3v-4.7c0.5-0.3,1-0.8,1-1.5c0-0.9-0.7-1.6-1.6-1.6c-0.9,0-1.6,0.7-1.6,1.6
									C106,129.8,106.5,130.4,107,130.6L107,130.6z M112.9,130.8c-0.5,0.3-1,0.8-1,1.5c0,0.9,0.7,1.6,1.6,1.6s1.6-0.7,1.6-1.6
									c0-0.6-0.4-1.2-0.9-1.5v-3.4h4.6v-1.3h-4.6v-2.9h-0.5h-0.9h-2.8c-0.2-0.6-0.8-1.1-1.6-1.1c-0.9,0-1.6,0.7-1.6,1.6
									c0,0.9,0.7,1.6,1.6,1.6c0.6,0,1.2-0.4,1.5-0.8h2.9V130.8L112.9,130.8z M99.3,130.6v4.8v1.3H98h-2v4.5h-1.3v-4.5v-0.9v-0.4
									H98v-4.7c-0.5-0.3-1-0.8-1-1.5c0-0.9,0.7-1.6,1.6-1.6c0.9,0,1.6,0.7,1.6,1.6C100.2,129.8,99.8,130.4,99.3,130.6L99.3,130.6z
									 M93.3,130.8c0.5,0.3,1,0.8,1,1.5c0,0.9-0.7,1.6-1.6,1.6c-0.9,0-1.6-0.7-1.6-1.6c0-0.6,0.4-1.2,0.9-1.5v-3.4h-4.6v-1.3H92
									v-2.9h0.4h0.9h2.8c0.2-0.6,0.8-1.1,1.6-1.1c0.9,0,1.6,0.7,1.6,1.6c0,0.9-0.7,1.6-1.6,1.6c-0.6,0-1.2-0.4-1.5-0.8h-2.9
									L93.3,130.8L93.3,130.8z M92.5,134.6v5.7h-1.3v-4.5h-4.6v-1.3h2.3h2.3H92.5L92.5,134.6z"/>
							</g>
							<path id="Shape_32_" class="st59" d="M280.9,315.9c0,0-10.2,0.2-12.4,0.8s-5.3,5.2-5.6,11.2c-0.3,6,0.9,9.1,2.6,10.8
								c3.5,3.4,27.2,3.4,30.6,0c1.7-1.7,2.9-4.7,2.6-10.8s-3.4-10.6-5.6-11.2C291.1,316,280.9,315.9,280.9,315.9L280.9,315.9z
								 M280.9,318.5c0,0-8.5,0.1-10.3,0.6c-1.8,0.5-4.5,4.1-4.7,8.8s0.7,7.2,2.2,8.5c2.8,2.6,22.5,2.6,25.5,0
								c1.5-1.4,2.4-3.7,2.2-8.5s-2.8-8.4-4.7-8.8C289.3,318.6,280.9,318.5,280.9,318.5L280.9,318.5z"/>
							<path id="Shape_31_" class="st51" d="M280.9,315.9c0,0-10.2,0.2-12.4,0.7c-2.2,0.6-5.3,4.8-5.6,10.3
								c-0.3,5.5,0.9,8.4,2.6,9.9c3.5,3.1,27.2,3.1,30.6,0c1.7-1.5,2.9-4.4,2.6-9.9c-0.3-5.5-3.4-9.8-5.6-10.3
								C291.1,316,280.9,315.9,280.9,315.9L280.9,315.9z M280.9,318.2c0,0-8.5,0.1-10.3,0.5c-1.8,0.5-4.5,3.8-4.7,8.1
								c-0.2,4.3,0.7,6.6,2.2,7.8c2.8,2.5,22.5,2.5,25.5,0c1.5-1.3,2.4-3.5,2.2-7.8s-2.8-7.7-4.7-8.1
								C289.3,318.4,280.9,318.2,280.9,318.2L280.9,318.2z"/>
						</g>
					</g>
				</g>
			</g>
		</g>
	</g>
</g>
</svg>
